<?xml version="1.0" encoding="UTF-8" standalone="no"?>
<!-- Created with Inkscape (http://www.inkscape.org/) -->

<svg
   xmlns:dc="http://purl.org/dc/elements/1.1/"
   xmlns:cc="http://creativecommons.org/ns#"
   xmlns:rdf="http://www.w3.org/1999/02/22-rdf-syntax-ns#"
   xmlns:svg="http://www.w3.org/2000/svg"
   xmlns="http://www.w3.org/2000/svg"
   xmlns:sodipodi="http://sodipodi.sourceforge.net/DTD/sodipodi-0.dtd"
   xmlns:inkscape="http://www.inkscape.org/namespaces/inkscape"
   width="297mm"
   height="210mm"
   viewBox="0 0 297 210"
   version="1.1"
   id="svg8"
   inkscape:version="0.92.3 (2405546, 2018-03-11)"
   sodipodi:docname="BeltDryerBase.svg">
  <defs
     id="defs2" />
  <sodipodi:namedview
     id="base"
     pagecolor="#ffffff"
     bordercolor="#666666"
     borderopacity="1.0"
     inkscape:pageopacity="0.0"
     inkscape:pageshadow="2"
     inkscape:zoom="1"
     inkscape:cx="463.21801"
     inkscape:cy="483.28641"
     inkscape:document-units="mm"
     inkscape:current-layer="layer1"
     showgrid="false"
     inkscape:window-width="1920"
     inkscape:window-height="1025"
     inkscape:window-x="0"
     inkscape:window-y="26"
     inkscape:window-maximized="1" />
  <metadata
     id="metadata5">
    <rdf:RDF>
      <cc:Work
         rdf:about="">
        <dc:format>image/svg+xml</dc:format>
        <dc:type
           rdf:resource="http://purl.org/dc/dcmitype/StillImage" />
        <dc:title></dc:title>
      </cc:Work>
    </rdf:RDF>
  </metadata>
  <g
     inkscape:label="Layer 1"
     inkscape:groupmode="layer"
     id="layer1"
     transform="translate(0,-87)">
    <path
       style="fill:none;stroke:#000000;stroke-width:0.32634628px;stroke-linecap:butt;stroke-linejoin:miter;stroke-opacity:1"
       d="M 66.580999,217.11711 H 222.04059"
       id="path861-9"
       inkscape:connector-curvature="0" />
    <path
       style="fill:none;stroke:#000000;stroke-width:0.32634628px;stroke-linecap:butt;stroke-linejoin:miter;stroke-opacity:1"
       d="M 98.727803,78.301185 H 254.1874"
       id="path861-9-3"
       inkscape:connector-curvature="0" />
    <circle
       style="opacity:1;fill:#e3dbdb;fill-opacity:1;stroke:#000000;stroke-width:3.96875;stroke-linecap:butt;stroke-linejoin:round;stroke-miterlimit:4;stroke-dasharray:none;stroke-dashoffset:0;stroke-opacity:0.76078431;paint-order:markers stroke fill"
       id="path840"
       cx="66.712799"
       cy="202.22247"
       r="13.040178" />
    <path
       style="fill:#e3dbdb;fill-opacity:1;stroke:#000000;stroke-width:0.32717589px;stroke-linecap:butt;stroke-linejoin:miter;stroke-opacity:1"
       d="M 66.58352,187.33597 H 222.8345"
       id="path861"
       inkscape:connector-curvature="0" />
    <path
       id="path840-0"
       d="M 111.89981,163.94824 A 13.040178,13.040178 0 0 1 98.859634,176.98842 13.040178,13.040178 0 0 1 85.819456,163.94824 13.040178,13.040178 0 0 1 98.859634,150.90806 13.040178,13.040178 0 0 1 111.89981,163.94824 Z"
       style="opacity:1;fill:#e3dbdb;fill-opacity:1;stroke:#e3dbdb;stroke-width:3.96875;stroke-linecap:butt;stroke-linejoin:round;stroke-miterlimit:4;stroke-dasharray:none;stroke-dashoffset:0;stroke-opacity:1;paint-order:markers stroke fill"
       inkscape:connector-curvature="0" />
    <path
       style="fill:#e3dbdb;fill-opacity:1;stroke:#e3dbdb;stroke-width:0.32786512px;stroke-linecap:butt;stroke-linejoin:miter;stroke-opacity:1"
       d="M 98.730323,149.06176 H 255.64034"
       id="path861-3"
       inkscape:connector-curvature="0" />
    <path
       style="fill:#e3dbdb;fill-opacity:1;stroke:#e3dbdb;stroke-width:0.26458332px;stroke-linecap:butt;stroke-linejoin:miter;stroke-opacity:1"
       d="M 53.9561,194.37947 88.867116,152.77469"
       id="path912"
       inkscape:connector-curvature="0" />
    <circle
       style="opacity:1;fill:#e3dbdb;fill-opacity:1;stroke:#e3dbdb;stroke-width:3.96875;stroke-linecap:butt;stroke-linejoin:round;stroke-miterlimit:4;stroke-dasharray:none;stroke-dashoffset:0;stroke-opacity:1;paint-order:markers stroke fill"
       id="path840-7-3"
       cx="254.17021"
       cy="163.94824"
       r="13.040178" />
    <path
       style="fill:#ff0600;fill-opacity:1;stroke:#e3dbdb;stroke-width:0.25230673px;stroke-linecap:butt;stroke-linejoin:miter;stroke-opacity:1"
       d="m 232.54498,213.08908 33.07469,-39.93399"
       id="path912-7"
       inkscape:connector-curvature="0" />
    <circle
       style="opacity:1;fill:#e3dbdb;fill-opacity:1;stroke:#000000;stroke-width:3.96875;stroke-linecap:butt;stroke-linejoin:round;stroke-miterlimit:4;stroke-dasharray:none;stroke-dashoffset:0;stroke-opacity:0.75961537;paint-order:markers stroke fill"
       id="path840-7"
       cx="222.02327"
       cy="202.22247"
       r="13.040178" />
    <path
       style="fill:#e3dbdb;fill-opacity:1;stroke:#e3dbdb;stroke-width:0.24600177px;stroke-linecap:butt;stroke-linejoin:miter;stroke-opacity:1"
       d="m 222.8345,187.33597 32.80584,-38.27421"
       id="path912-7-6"
       inkscape:connector-curvature="0" />
    <path
       style="opacity:1;fill:none;fill-opacity:0.53846154;stroke:none;stroke-width:10.71496105;stroke-linecap:butt;stroke-linejoin:round;stroke-miterlimit:4;stroke-dasharray:none;stroke-dashoffset:0;stroke-opacity:1;paint-order:markers stroke fill"
       d="m 223.91284,383.23252 c 17.16543,-20.61625 97.47812,-116.11812 97.56775,-116.02029 0.0627,0.0685 -0.88725,3.0173 -2.111,6.55302 -2.07188,5.98615 -2.22648,7.11678 -2.24633,16.42857 -0.0158,7.39517 0.30792,11.20938 1.24265,14.64285 6.67703,24.52604 27.4477,41.45797 52.33415,42.66199 16.42889,0.79484 30.04615,-4.22151 41.95453,-15.45528 11.8105,-11.14142 17.65135,-24.75313 17.65135,-41.13528 0,-24.59388 -14.92066,-45.66976 -38.21429,-53.9788 -3.43809,-1.2264 6.82921,-1.27452 275,-1.28893 l 278.57143,-0.015 -4.32,1.60633 c -8.17971,3.04151 -13.98379,6.84781 -20.75349,13.61005 -7.26385,7.25584 -11.20169,13.54396 -14.35549,22.92348 -1.77197,5.2699 -1.91691,6.57528 -1.86371,16.78571 0.0317,6.08929 0.17485,11.79331 0.31805,12.67561 0.20343,1.25342 -6.61144,9.64261 -31.16822,38.36846 l -31.42857,36.76429 -297.19024,0.0243 c -204.46838,0.0168 -298.51258,0.25861 -301.42857,0.7751 -5.89592,1.04429 -12.75048,3.33478 -17.80976,5.95122 -2.35714,1.21901 -4.59118,2.34731 -4.96453,2.50731 -0.37334,0.16001 1.07309,-1.81315 3.21429,-4.38481 z"
       id="path988"
       inkscape:connector-curvature="0"
       transform="matrix(0.26458333,0,0,0.26458333,0,87)" />
    <path
       style="opacity:1;fill:none;fill-opacity:0.53846154;stroke:none;stroke-width:10.71496105;stroke-linecap:butt;stroke-linejoin:round;stroke-miterlimit:4;stroke-dasharray:none;stroke-dashoffset:0;stroke-opacity:1;paint-order:markers stroke fill"
       d="m 223.91284,383.23252 c 17.16543,-20.61625 97.47812,-116.11812 97.56775,-116.02029 0.0627,0.0685 -0.88725,3.0173 -2.111,6.55302 -2.07188,5.98615 -2.22648,7.11678 -2.24633,16.42857 -0.0158,7.39517 0.30792,11.20938 1.24265,14.64285 6.67703,24.52604 27.4477,41.45797 52.33415,42.66199 16.42889,0.79484 30.04615,-4.22151 41.95453,-15.45528 11.8105,-11.14142 17.65135,-24.75313 17.65135,-41.13528 0,-24.59388 -14.92066,-45.66976 -38.21429,-53.9788 -3.43809,-1.2264 6.82921,-1.27452 275,-1.28893 l 278.57143,-0.015 -4.32,1.60633 c -8.17971,3.04151 -13.98379,6.84781 -20.75349,13.61005 -7.26385,7.25584 -11.20169,13.54396 -14.35549,22.92348 -1.77197,5.2699 -1.91691,6.57528 -1.86371,16.78571 0.0317,6.08929 0.17485,11.79331 0.31805,12.67561 0.20343,1.25342 -6.61144,9.64261 -31.16822,38.36846 l -31.42857,36.76429 -297.19024,0.0243 c -204.46838,0.0168 -298.51258,0.25861 -301.42857,0.7751 -5.89592,1.04429 -12.75048,3.33478 -17.80976,5.95122 -2.35714,1.21901 -4.59118,2.34731 -4.96453,2.50731 -0.37334,0.16001 1.07309,-1.81315 3.21429,-4.38481 z"
       id="path990"
       inkscape:connector-curvature="0"
       transform="matrix(0.26458333,0,0,0.26458333,0,87)" />
    <path
       style="opacity:1;fill:none;fill-opacity:0.53846154;stroke:none;stroke-width:10.71496105;stroke-linecap:butt;stroke-linejoin:round;stroke-miterlimit:4;stroke-dasharray:none;stroke-dashoffset:0;stroke-opacity:1;paint-order:markers stroke fill"
       d="m 223.91284,383.23252 c 17.16543,-20.61625 97.47812,-116.11812 97.56775,-116.02029 0.0627,0.0685 -0.88725,3.0173 -2.111,6.55302 -2.07188,5.98615 -2.22648,7.11678 -2.24633,16.42857 -0.0158,7.39517 0.30792,11.20938 1.24265,14.64285 6.67703,24.52604 27.4477,41.45797 52.33415,42.66199 16.42889,0.79484 30.04615,-4.22151 41.95453,-15.45528 11.8105,-11.14142 17.65135,-24.75313 17.65135,-41.13528 0,-24.59388 -14.92066,-45.66976 -38.21429,-53.9788 -3.43809,-1.2264 6.82921,-1.27452 275,-1.28893 l 278.57143,-0.015 -4.32,1.60633 c -8.17971,3.04151 -13.98379,6.84781 -20.75349,13.61005 -7.26385,7.25584 -11.20169,13.54396 -14.35549,22.92348 -1.77197,5.2699 -1.91691,6.57528 -1.86371,16.78571 0.0317,6.08929 0.17485,11.79331 0.31805,12.67561 0.20343,1.25342 -6.61144,9.64261 -31.16822,38.36846 l -31.42857,36.76429 -297.19024,0.0243 c -204.46838,0.0168 -298.51258,0.25861 -301.42857,0.7751 -5.89592,1.04429 -12.75048,3.33478 -17.80976,5.95122 -2.35714,1.21901 -4.59118,2.34731 -4.96453,2.50731 -0.37334,0.16001 1.07309,-1.81315 3.21429,-4.38481 z"
       id="path992"
       inkscape:connector-curvature="0"
       transform="matrix(0.26458333,0,0,0.26458333,0,87)" />
    <path
       style="opacity:1;fill:none;fill-opacity:0.53846154;stroke:none;stroke-width:10.71496105;stroke-linecap:butt;stroke-linejoin:round;stroke-miterlimit:4;stroke-dasharray:none;stroke-dashoffset:0;stroke-opacity:1;paint-order:markers stroke fill"
       d="m 223.91284,383.23252 c 17.16543,-20.61625 97.47812,-116.11812 97.56775,-116.02029 0.0627,0.0685 -0.88725,3.0173 -2.111,6.55302 -2.07188,5.98615 -2.22648,7.11678 -2.24633,16.42857 -0.0158,7.39517 0.30792,11.20938 1.24265,14.64285 6.67703,24.52604 27.4477,41.45797 52.33415,42.66199 16.42889,0.79484 30.04615,-4.22151 41.95453,-15.45528 11.8105,-11.14142 17.65135,-24.75313 17.65135,-41.13528 0,-24.59388 -14.92066,-45.66976 -38.21429,-53.9788 -3.43809,-1.2264 6.82921,-1.27452 275,-1.28893 l 278.57143,-0.015 -4.32,1.60633 c -8.17971,3.04151 -13.98379,6.84781 -20.75349,13.61005 -7.26385,7.25584 -11.20169,13.54396 -14.35549,22.92348 -1.77197,5.2699 -1.91691,6.57528 -1.86371,16.78571 0.0317,6.08929 0.17485,11.79331 0.31805,12.67561 0.20343,1.25342 -6.61144,9.64261 -31.16822,38.36846 l -31.42857,36.76429 -297.19024,0.0243 c -204.46838,0.0168 -298.51258,0.25861 -301.42857,0.7751 -5.89592,1.04429 -12.75048,3.33478 -17.80976,5.95122 -2.35714,1.21901 -4.59118,2.34731 -4.96453,2.50731 -0.37334,0.16001 1.07309,-1.81315 3.21429,-4.38481 z"
       id="path994"
       inkscape:connector-curvature="0"
       transform="matrix(0.26458333,0,0,0.26458333,0,87)" />
    <path
       style="opacity:1;fill:none;fill-opacity:0.53846154;stroke:none;stroke-width:10.71496105;stroke-linecap:butt;stroke-linejoin:round;stroke-miterlimit:4;stroke-dasharray:none;stroke-dashoffset:0;stroke-opacity:1;paint-order:markers stroke fill"
       d="m 367.21924,346.93975 c -23.37153,-2.71649 -42.46079,-19.46347 -48.32553,-42.39591 -1.9798,-7.74148 -1.9798,-19.52999 0,-27.27148 2.09722,-8.2006 4.85325,-13.43808 10.65126,-20.24138 2.82174,-3.31099 5.76264,-6.90781 6.53532,-7.99295 2.02396,-2.84238 10.66101,-8.36517 16.82603,-10.75905 6.49283,-2.52118 19.66174,-4.87021 20.09058,-3.58371 0.19414,0.58243 2.39329,0.85569 6.88631,0.85569 27.78054,0 52.64701,29.36316 50.1565,59.22647 -1.16018,13.91169 -6.87253,26.32844 -16.577,36.0329 -6.60765,6.60766 -15.35895,11.83603 -23.89355,14.27498 -3.30969,0.94581 -15.94773,2.79776 -17.12037,2.50877 -0.19643,-0.0484 -2.54972,-0.34286 -5.22955,-0.65433 z"
       id="path996"
       inkscape:connector-curvature="0"
       transform="matrix(0.26458333,0,0,0.26458333,0,87)" />
    <path
       style="fill:#e3dbdb;stroke:none;stroke-opacity:1;stroke-width:15.00094488;stroke-miterlimit:4;stroke-dasharray:none;stroke-linecap:butt;stroke-linejoin:round;fill-opacity:1;opacity:1;stroke-dashoffset:0;paint-order:markers stroke fill"
       d="m 223.91284,383.23252 c 17.16543,-20.61625 97.47812,-116.11812 97.56775,-116.02029 0.0627,0.0685 -0.88725,3.0173 -2.111,6.55302 -2.07188,5.98615 -2.22648,7.11678 -2.24633,16.42857 -0.0158,7.39517 0.30792,11.20938 1.24265,14.64285 6.67703,24.52604 27.4477,41.45797 52.33415,42.66199 16.42889,0.79484 30.04615,-4.22151 41.95453,-15.45528 11.8105,-11.14142 17.65135,-24.75313 17.65135,-41.13528 0,-24.59388 -14.92066,-45.66976 -38.21429,-53.9788 -3.43809,-1.2264 6.82921,-1.27452 275,-1.28893 l 278.57143,-0.015 -4.32,1.60633 c -8.17971,3.04151 -13.98379,6.84781 -20.75349,13.61005 -7.26385,7.25584 -11.20169,13.54396 -14.35549,22.92348 -1.77197,5.2699 -1.91691,6.57528 -1.86371,16.78571 0.0317,6.08929 0.17485,11.79331 0.31805,12.67561 0.20343,1.25342 -6.61144,9.64261 -31.16822,38.36846 l -31.42857,36.76429 -297.19024,0.0243 c -204.46838,0.0168 -298.51258,0.25861 -301.42857,0.7751 -5.89592,1.04429 -12.75048,3.33478 -17.80976,5.95122 -2.35714,1.21901 -4.59118,2.34731 -4.96453,2.50731 -0.37334,0.16001 1.07309,-1.81315 3.21429,-4.38481 z"
       id="path998"
       inkscape:connector-curvature="0"
       transform="matrix(0.26458333,0,0,0.26458333,0,87)" />
    <path
       style="opacity:1;fill:#e3dbdb;fill-opacity:1;stroke:none;stroke-width:0.66968507;stroke-linecap:butt;stroke-linejoin:round;stroke-miterlimit:4;stroke-dasharray:none;stroke-dashoffset:0;stroke-opacity:1;paint-order:markers stroke fill"
       d="m 904.51464,281.83505 c -0.006,-0.26557 0.11104,-1.54743 0.19802,-2.16517 0.22909,-1.62719 0.55717,-2.92302 1.34504,-5.3125 1.84636,-5.59972 3.82879,-9.84139 6.46371,-13.82991 0.19125,-0.28949 0.35692,-0.51714 0.36816,-0.5059 0.0112,0.0113 -0.20977,0.38872 -0.49113,0.83884 -2.72066,4.35241 -4.91088,9.28828 -6.35182,14.31445 -0.61797,2.15556 -0.98835,3.80055 -1.4644,6.50394 -0.0546,0.30991 -0.0635,0.33057 -0.0676,0.15625 z"
       id="path1000"
       inkscape:connector-curvature="0"
       transform="matrix(0.26458333,0,0,0.26458333,0,87)" />
    <path
       style="opacity:1;fill:#e3dbdb;fill-opacity:1;stroke:#e3dbdb;stroke-width:0.26996624;stroke-linecap:butt;stroke-linejoin:round;stroke-miterlimit:4;stroke-dasharray:none;stroke-dashoffset:0;stroke-opacity:1;paint-order:markers stroke fill"
       d="m 891.08774,459.32174 c 9.80232,-23.39257 4.80608,-48.42404 -13.0223,-65.24242 -2.73518,-2.58024 -6.95061,-5.89264 -9.36763,-7.3609 -5.4883,-3.33396 -14.60874,-6.704 -19.79194,-7.31317 -2.16894,-0.25493 -4.08744,-0.69633 -4.26333,-0.98093 -0.27927,-0.45186 60.67888,-72.1383 61.3424,-72.1383 0.14009,0 0.96972,1.96097 1.84361,4.3577 4.82562,13.23472 15.41478,24.84417 28.33241,31.06233 7.77527,3.74277 14.85846,5.29512 24.13437,5.28926 11.92442,-0.008 21.25011,-2.57679 30.3209,-8.35349 2.10541,-1.34082 3.98292,-2.28295 4.17226,-2.09362 0.36278,0.36278 -103.17108,124.02354 -103.8376,124.02354 -0.21282,0 -0.15124,-0.5625 0.13685,-1.25 z"
       id="path1023"
       inkscape:connector-curvature="0"
       transform="matrix(0.26458333,0,0,0.26458333,0,87)" />
    <path
       style="fill:none;stroke:#000000;stroke-width:0.26238078px;stroke-linecap:butt;stroke-linejoin:miter;stroke-opacity:1"
       d="M -53.189163,210.47958 -21.23891,172.63467"
       id="path1033"
       inkscape:connector-curvature="0" />
    <path
       style="opacity:1;fill:#101010;fill-opacity:0.42788461;stroke:none;stroke-width:0.13362648;stroke-linecap:butt;stroke-linejoin:round;stroke-miterlimit:4;stroke-dasharray:none;stroke-dashoffset:0;stroke-opacity:1;paint-order:markers stroke fill"
       d="m 303.6947,459.7216 c 0,-0.11723 0.38692,-1.08803 0.85982,-2.15734 1.20053,-2.71462 2.88387,-8.33476 3.62692,-12.10914 0.96138,-4.88348 0.86669,-16.08092 -0.1769,-20.91776 -1.74372,-8.0818 -5.06085,-15.75797 -9.52379,-22.03898 -2.98963,-4.20752 -9.21807,-10.45472 -13.28893,-13.32896 -5.15782,-3.64169 -13.79147,-7.64479 -19.50411,-9.04332 -0.38891,-0.0952 23.20691,-0.19157 52.43516,-0.21412 41.87307,-0.0323 53.08546,0.0509 52.87441,0.39238 -0.36514,0.5908 -65.39613,77.65521 -66.4572,78.75453 -0.46496,0.48171 -0.84538,0.77994 -0.84538,0.66271 z"
       id="path1077"
       inkscape:connector-curvature="0"
       transform="matrix(0.26458333,0,0,0.26458333,0,87)" />
    <path
       style="opacity:1;fill:#e3dbdb;fill-opacity:1;stroke:#e3dbdb;stroke-width:0.04724409;stroke-linecap:butt;stroke-linejoin:round;stroke-miterlimit:4;stroke-dasharray:none;stroke-dashoffset:0;stroke-opacity:1;paint-order:markers stroke fill"
       d="m 930.19971,242.75863 c 0.6837,-0.53113 3.58709,-2.19041 5.4585,-3.11951 1.90775,-0.94713 5.09324,-2.26357 8.229,-3.40071 l 1.5,-0.54396 -86.78125,-0.0313 c -77.02319,-0.0278 -86.78125,-0.0524 -86.78125,-0.21875 0,-0.16638 9.94131,-0.18625 88.59375,-0.1771 l 88.59375,0.0103 -1.26769,0.29458 c -5.38944,1.25235 -11.49255,3.72012 -16.2021,6.55125 -1.44927,0.87123 -1.95367,1.10986 -1.34271,0.63524 z"
       id="path1079"
       inkscape:connector-curvature="0"
       transform="matrix(0.26458333,0,0,0.26458333,0,87)" />
    <path
       style="opacity:1;fill:#e3dbdb;fill-opacity:1;stroke:#e3dbdb;stroke-width:0.06681324;stroke-linecap:butt;stroke-linejoin:round;stroke-miterlimit:4;stroke-dasharray:none;stroke-dashoffset:0;stroke-opacity:1;paint-order:markers stroke fill"
       d="m 878.82858,476.64797 c -0.27494,-0.20888 -0.22908,-0.30038 0.50656,-1.01085 2.42117,-2.33834 5.85891,-6.60685 7.66093,-9.51233 0.50384,-0.81232 1.09713,-1.64616 1.31848,-1.85297 0.22134,-0.20682 1.02385,-1.13175 1.78335,-2.05541 0.75949,-0.92365 1.54519,-1.87825 1.74599,-2.12132 0.20605,-0.24941 0.0795,-0.17893 -0.29048,0.16178 -0.47646,0.43878 -0.67698,0.53537 -0.7339,0.35356 -0.20406,-0.65173 -0.23916,-1.04567 -0.0932,-1.04567 0.0881,0 0.14333,-0.0597 0.12267,-0.13258 -0.0207,-0.0729 0.0723,-0.33146 0.20665,-0.57452 0.13431,-0.24307 0.21696,-0.44195 0.18365,-0.44195 -0.0333,0 0.26474,-0.83527 0.66231,-1.85615 1.71338,-4.3996 2.76751,-8.44538 3.52355,-13.52342 0.40201,-2.70029 0.45715,-11.94771 0.0869,-14.58407 -2.1671,-15.43252 -9.27273,-27.89577 -21.52136,-37.7484 -7.11293,-5.72154 -16.54844,-9.82315 -26.00359,-11.30371 -2.7682,-0.43347 -3.41608,-0.63389 -3.41608,-1.05676 0,-0.23844 1.46855,-2.11034 4.9291,-6.2829 2.56784,-3.09619 13.74421,-16.381 14.83485,-17.63348 0.52916,-0.60767 0.91866,-1.10485 0.86559,-1.10485 -0.0531,0 -4.84656,5.54858 -10.65214,12.33017 -5.8056,6.7816 -10.87822,12.66686 -11.27252,13.07835 -0.66233,0.69123 -0.74032,0.72696 -1.02479,0.46952 -0.16934,-0.15325 -0.26497,-0.39049 -0.21252,-0.52719 0.0819,-0.21338 -14.39235,-0.24856 -102.27724,-0.24856 h -102.3726 v -39.50959 -39.50959 h 189.6814 189.68136 v 0.37553 c 0,0.7103 -0.87,4.67095 -1.5101,6.8749 -2.0694,7.12456 -5.4698,13.67754 -10.2265,19.70722 -0.7673,0.97271 -2.7972,3.16894 -4.5108,4.88052 -2.84737,2.84402 -8.19764,9.248 -62.14063,74.37879 -32.46376,39.19676 -59.07173,71.26431 -59.12881,71.26122 -0.0571,-0.003 -0.23982,-0.10898 -0.40608,-0.23529 z m 14.02504,-17.74612 c 0.21988,-0.28038 0.21364,-0.28663 -0.0667,-0.0667 -0.17015,0.13344 -0.30936,0.27265 -0.30936,0.30936 0,0.14549 0.14517,0.0519 0.37611,-0.24262 z m -50.20458,-80.96373 c 0.21988,-0.28037 0.21364,-0.28663 -0.0668,-0.0667 -0.17015,0.13344 -0.30936,0.27265 -0.30936,0.30936 0,0.14549 0.14517,0.0519 0.37611,-0.24262 z m 1.06066,-1.23743 c 0.21988,-0.28038 0.21364,-0.28663 -0.0667,-0.0668 -0.17015,0.13344 -0.30936,0.27266 -0.30936,0.30936 0,0.1455 0.14517,0.0519 0.37611,-0.24261 z m 1.06066,-1.23744 c 0.21988,-0.28038 0.21364,-0.28663 -0.0667,-0.0667 -0.17015,0.13344 -0.30936,0.27265 -0.30936,0.30936 0,0.14549 0.14517,0.0519 0.37611,-0.24262 z m 1.06066,-1.23744 c 0.21988,-0.28037 0.21364,-0.28663 -0.0667,-0.0667 -0.17015,0.13344 -0.30936,0.27265 -0.30936,0.30936 0,0.14549 0.14517,0.0519 0.37611,-0.24262 z m 0.94972,-1.10485 c 0.17598,-0.19445 0.28019,-0.35355 0.23157,-0.35355 -0.0486,0 -0.23237,0.1591 -0.40835,0.35355 -0.17598,0.19445 -0.28019,0.35355 -0.23158,0.35355 0.0486,0 0.23238,-0.1591 0.40836,-0.35355 z m 1.06066,-1.23744 c 0.17598,-0.19445 0.28019,-0.35355 0.23157,-0.35355 -0.0486,0 -0.23237,0.1591 -0.40835,0.35355 -0.17598,0.19446 -0.28019,0.35356 -0.23158,0.35356 0.0486,0 0.23238,-0.1591 0.40836,-0.35356 z m 1.06066,-1.23743 c 0.17598,-0.19446 0.28019,-0.35356 0.23157,-0.35356 -0.0486,0 -0.23237,0.1591 -0.40835,0.35356 -0.17598,0.19445 -0.28019,0.35355 -0.23158,0.35355 0.0486,0 0.23238,-0.1591 0.40836,-0.35355 z m 1.06066,-1.23744 c 0.17598,-0.19446 0.28019,-0.35355 0.23157,-0.35355 -0.0486,0 -0.23237,0.15909 -0.40835,0.35355 -0.17598,0.19445 -0.28019,0.35355 -0.23158,0.35355 0.0486,0 0.23238,-0.1591 0.40836,-0.35355 z m 1.06066,-1.23744 c 0.17598,-0.19445 0.28019,-0.35355 0.23158,-0.35355 -0.0486,0 -0.23238,0.1591 -0.40836,0.35355 -0.17598,0.19446 -0.28019,0.35356 -0.23158,0.35356 0.0486,0 0.23238,-0.1591 0.40836,-0.35356 z m 1.06066,-1.23743 c 0.17598,-0.19446 0.28019,-0.35356 0.23158,-0.35356 -0.0486,0 -0.23238,0.1591 -0.40836,0.35356 -0.17598,0.19445 -0.28019,0.35355 -0.23158,0.35355 0.0486,0 0.23238,-0.1591 0.40836,-0.35355 z m 1.06066,-1.23744 c 0.17598,-0.19446 0.28019,-0.35355 0.23158,-0.35355 -0.0486,0 -0.23238,0.15909 -0.40836,0.35355 -0.17598,0.19445 -0.28019,0.35355 -0.23158,0.35355 0.0486,0 0.23238,-0.1591 0.40836,-0.35355 z m 1.06066,-1.23744 c 0.17598,-0.19445 0.28019,-0.35355 0.23158,-0.35355 -0.0486,0 -0.23238,0.1591 -0.40836,0.35355 -0.17598,0.19446 -0.28019,0.35355 -0.23158,0.35355 0.0486,0 0.23238,-0.15909 0.40836,-0.35355 z m 1.06066,-1.23744 c 0.17598,-0.19445 0.28019,-0.35355 0.23158,-0.35355 -0.0486,0 -0.23238,0.1591 -0.40836,0.35355 -0.17598,0.19446 -0.28019,0.35356 -0.23158,0.35356 0.0486,0 0.23238,-0.1591 0.40836,-0.35356 z m 0.97227,-1.14904 c 0.22834,-0.24307 0.3754,-0.44195 0.32679,-0.44195 -0.0486,0 -0.27522,0.19888 -0.50357,0.44195 -0.22834,0.24306 -0.3754,0.44194 -0.32679,0.44194 0.0486,0 0.27523,-0.19888 0.50357,-0.44194 z m 1.06066,-1.23744 c 0.22834,-0.24307 0.3754,-0.44194 0.32679,-0.44194 -0.0486,0 -0.27522,0.19887 -0.50357,0.44194 -0.22834,0.24307 -0.3754,0.44194 -0.32679,0.44194 0.0486,0 0.27523,-0.19887 0.50357,-0.44194 z m 1.06066,-1.23744 c 0.22834,-0.24307 0.3754,-0.44194 0.32679,-0.44194 -0.0486,0 -0.27522,0.19887 -0.50357,0.44194 -0.22834,0.24307 -0.3754,0.44194 -0.32679,0.44194 0.0486,0 0.27523,-0.19887 0.50357,-0.44194 z m 1.06066,-1.23743 c 0.22834,-0.24307 0.3754,-0.44195 0.32679,-0.44195 -0.0486,0 -0.27522,0.19888 -0.50357,0.44195 -0.22834,0.24306 -0.3754,0.44194 -0.32679,0.44194 0.0486,0 0.27523,-0.19888 0.50357,-0.44194 z m 1.06066,-1.23744 c 0.22834,-0.24307 0.3754,-0.44194 0.32679,-0.44194 -0.0486,0 -0.27522,0.19887 -0.50357,0.44194 -0.22834,0.24307 -0.3754,0.44194 -0.32679,0.44194 0.0486,0 0.27523,-0.19887 0.50357,-0.44194 z m 1.06066,-1.23744 c 0.22834,-0.24307 0.3754,-0.44194 0.32679,-0.44194 -0.0486,0 -0.27522,0.19887 -0.50357,0.44194 -0.22834,0.24307 -0.3754,0.44194 -0.32679,0.44194 0.0486,0 0.27523,-0.19887 0.50357,-0.44194 z m 1.06066,-1.23743 c 0.22834,-0.24307 0.3754,-0.44195 0.32679,-0.44195 -0.0486,0 -0.27522,0.19888 -0.50357,0.44195 -0.22834,0.24306 -0.3754,0.44194 -0.32678,0.44194 0.0486,0 0.27522,-0.19888 0.50356,-0.44194 z m 1.06066,-1.23744 c 0.22834,-0.24307 0.3754,-0.44194 0.32679,-0.44194 -0.0486,0 -0.27522,0.19887 -0.50357,0.44194 -0.22834,0.24307 -0.3754,0.44194 -0.32678,0.44194 0.0486,0 0.27522,-0.19887 0.50356,-0.44194 z m 2.22083,-0.83969 0.51921,-0.57453 -0.57452,0.51921 c -0.53555,0.48398 -0.65579,0.62984 -0.51922,0.62984 0.0304,0 0.28896,-0.25853 0.57453,-0.57452 z m -1.16017,-0.39775 c 0.22834,-0.24307 0.3754,-0.44194 0.32679,-0.44194 -0.0486,0 -0.27522,0.19887 -0.50357,0.44194 -0.22834,0.24307 -0.3754,0.44194 -0.32678,0.44194 0.0486,0 0.27522,-0.19887 0.50356,-0.44194 z m 2.12132,-0.70711 c 0.22834,-0.24306 0.3754,-0.44194 0.32679,-0.44194 -0.0486,0 -0.27522,0.19888 -0.50356,0.44194 -0.22835,0.24307 -0.37541,0.44195 -0.32679,0.44195 0.0486,0 0.27522,-0.19888 0.50356,-0.44195 z m -1.13793,-0.48613 0.51921,-0.57453 -0.57452,0.51921 c -0.53555,0.48398 -0.65579,0.62984 -0.51921,0.62984 0.0304,0 0.28896,-0.25853 0.57452,-0.57452 z m 2.19859,-0.7513 c 0.22834,-0.24307 0.3754,-0.44194 0.32679,-0.44194 -0.0486,0 -0.27522,0.19887 -0.50356,0.44194 -0.22835,0.24307 -0.37541,0.44194 -0.32679,0.44194 0.0486,0 0.27522,-0.19887 0.50356,-0.44194 z m -1.13793,-0.48614 0.51921,-0.57452 -0.57452,0.51921 c -0.53555,0.48397 -0.65579,0.62984 -0.51921,0.62984 0.0304,0 0.28896,-0.25854 0.57452,-0.57453 z m 2.1102,-0.66291 c 0.17599,-0.19446 0.28019,-0.35355 0.23158,-0.35355 -0.0486,0 -0.23237,0.15909 -0.40835,0.35355 -0.17598,0.19445 -0.28019,0.35355 -0.23158,0.35355 0.0486,0 0.23237,-0.1591 0.40835,-0.35355 z m -1.04954,-0.57453 0.51921,-0.57452 -0.57452,0.51921 c -0.53555,0.48398 -0.65579,0.62984 -0.51921,0.62984 0.0304,0 0.28896,-0.25854 0.57452,-0.57453 z m 2.1102,-0.66291 c 0.17599,-0.19445 0.2802,-0.35355 0.23158,-0.35355 -0.0486,0 -0.23237,0.1591 -0.40835,0.35355 -0.17598,0.19446 -0.28019,0.35356 -0.23158,0.35356 0.0486,0 0.23237,-0.1591 0.40835,-0.35356 z m -1.04954,-0.57452 0.51921,-0.57453 -0.57452,0.51921 c -0.53555,0.48398 -0.65579,0.62984 -0.51921,0.62984 0.0304,0 0.28896,-0.25853 0.57452,-0.57452 z m 2.1102,-0.66291 c 0.17599,-0.19446 0.2802,-0.35356 0.23158,-0.35356 -0.0486,0 -0.23237,0.1591 -0.40835,0.35356 -0.17598,0.19445 -0.28019,0.35355 -0.23158,0.35355 0.0486,0 0.23237,-0.1591 0.40835,-0.35355 z m -1.04954,-0.57453 0.51921,-0.57452 -0.57452,0.51921 c -0.53555,0.48397 -0.65579,0.62984 -0.51921,0.62984 0.0304,0 0.28896,-0.25854 0.57452,-0.57453 z m 2.04437,-0.61872 c 0.21988,-0.28038 0.21364,-0.28663 -0.0667,-0.0667 -0.17015,0.13344 -0.30936,0.27265 -0.30936,0.30936 0,0.14549 0.14517,0.0518 0.37611,-0.24262 z m -0.98371,-0.61872 0.51921,-0.57452 -0.57452,0.51921 c -0.53555,0.48397 -0.65579,0.62984 -0.51921,0.62984 0.0304,0 0.28896,-0.25854 0.57452,-0.57453 z m 2.04437,-0.61871 c 0.21988,-0.28038 0.21364,-0.28664 -0.0667,-0.0668 -0.17015,0.13344 -0.30936,0.27265 -0.30936,0.30936 0,0.1455 0.14517,0.0519 0.37611,-0.24261 z m -0.98371,-0.61872 0.51921,-0.57453 -0.57452,0.51921 c -0.53554,0.48398 -0.65579,0.62984 -0.51921,0.62984 0.0304,0 0.28896,-0.25853 0.57452,-0.57452 z m 1.06066,-1.23744 0.51921,-0.57452 -0.57452,0.51921 c -0.53554,0.48397 -0.65579,0.62983 -0.51921,0.62983 0.0304,0 0.28896,-0.25853 0.57452,-0.57452 z m 16.8733,-19.64959 15.42701,-18.01441 -0.3342,-1.69619 -0.3342,-1.6962 -0.0884,1.35301 c -0.0847,1.29689 -0.13021,1.4142 -1.09702,2.82843 -1.37251,2.00768 -3.38197,4.56692 -7.61273,9.69553 -4.03242,4.88819 -17.14983,20.41653 -22.0262,26.07457 l -0.45707,0.53033 0.5479,-0.53033 c 0.30133,-0.29169 7.49005,-8.63682 15.9749,-18.54474 z m 11.68758,-11.90505 c 0.21987,-0.28038 0.21363,-0.28663 -0.0667,-0.0667 -0.17015,0.13344 -0.30936,0.27265 -0.30936,0.30936 0,0.14549 0.14517,0.0519 0.37611,-0.24262 z m 1.21488,-1.37002 c 0.22834,-0.24307 0.3754,-0.44194 0.32679,-0.44194 -0.0486,0 -0.27523,0.19887 -0.50357,0.44194 -0.22834,0.24307 -0.3754,0.44194 -0.32679,0.44194 0.0486,0 0.27523,-0.19887 0.50357,-0.44194 z m 2.90083,-3.43241 c -0.0398,-0.0405 -0.0954,-0.0405 -0.12353,0 -0.0281,0.0405 -0.55442,0.67028 -1.16957,1.39948 l -1.11843,1.32582 1.24196,-1.32582 c 0.68308,-0.7292 1.20938,-1.35897 1.16957,-1.39948 z"
       id="path1081"
       inkscape:connector-curvature="0"
       transform="matrix(0.26458333,0,0,0.26458333,0,87)" />
    <path
       style="opacity:1;fill:#e3dbdb;fill-opacity:1;stroke:#e3dbdb;stroke-width:0.06681324;stroke-linecap:butt;stroke-linejoin:round;stroke-miterlimit:4;stroke-dasharray:none;stroke-dashoffset:0;stroke-opacity:1;paint-order:markers stroke fill"
       d="m 878.73259,476.68506 c -0.15392,-0.15392 0.18626,-0.61601 1.38926,-1.88715 2.28577,-2.41523 4.68492,-5.4385 6.41179,-8.07981 0.82419,-1.26058 1.64355,-2.45045 1.82084,-2.64413 0.17729,-0.19368 0.79489,-0.90963 1.37244,-1.59099 1.73208,-2.04336 1.61371,-1.88481 1.32646,-1.77671 -0.42686,0.16066 -0.69042,-0.65105 -0.39465,-1.21553 0.52464,-1.00129 2.19447,-5.48895 2.78773,-7.492 1.43999,-4.86174 2.13792,-9.26508 2.31723,-14.61945 0.40282,-12.02903 -2.67665,-23.07114 -9.1945,-32.96886 -2.04638,-3.10755 -4.01304,-5.52053 -6.89478,-8.45953 -6.14368,-6.26574 -12.07928,-10.2482 -19.72529,-13.23457 -4.32283,-1.68841 -6.91913,-2.40606 -11.683,-3.22933 -1.67301,-0.28912 -3.18882,-0.57233 -3.36846,-0.62934 -0.79408,-0.25203 -0.44044,-0.821 3.42837,-5.51573 1.14175,-1.38549 2.04059,-2.51907 1.99744,-2.51907 -0.0432,0 -1.50292,1.65065 -3.24391,3.66812 -1.74098,2.01746 -3.47082,3.96458 -3.84406,4.32692 -0.63177,0.6133 -0.70037,0.63914 -0.9932,0.37412 -0.17303,-0.15657 -0.27199,-0.3536 -0.21993,-0.43783 0.0533,-0.0863 -44.59912,-0.15315 -102.26949,-0.15315 H 637.38874 v -39.59798 -39.59798 h 189.77779 189.77777 l -0.1149,0.66291 c -1.1048,6.37492 -3.1959,12.46358 -6.1107,17.79274 -2.6994,4.93542 -4.9439,7.96725 -9.4352,12.74543 -5.12015,5.44714 -7.22485,7.95776 -54.53598,65.05383 -65.00293,78.44691 -67.31786,81.22889 -67.59186,81.22889 -0.12058,0 -0.31097,-0.0917 -0.42307,-0.20382 z m -27.7976,-106.48092 c 0.22834,-0.24306 0.3754,-0.44194 0.32679,-0.44194 -0.0486,0 -0.27522,0.19888 -0.50357,0.44194 -0.22834,0.24307 -0.3754,0.44195 -0.32679,0.44195 0.0486,0 0.27523,-0.19888 0.50357,-0.44195 z m 1.06066,-1.23743 c 0.22834,-0.24307 0.3754,-0.44194 0.32679,-0.44194 -0.0486,0 -0.27522,0.19887 -0.50357,0.44194 -0.22834,0.24307 -0.3754,0.44194 -0.32679,0.44194 0.0486,0 0.27523,-0.19887 0.50357,-0.44194 z m 0.97227,-1.14905 c 0.17598,-0.19446 0.28019,-0.35355 0.23158,-0.35355 -0.0486,0 -0.23237,0.15909 -0.40836,0.35355 -0.17598,0.19445 -0.28019,0.35355 -0.23157,0.35355 0.0486,0 0.23237,-0.1591 0.40835,-0.35355 z m 0.99483,-1.19324 c 0.21987,-0.28038 0.21363,-0.28663 -0.0668,-0.0668 -0.17015,0.13344 -0.30936,0.27265 -0.30936,0.30936 0,0.1455 0.14517,0.0519 0.37611,-0.24261 z m 36.65861,-44.7687 c 0.17598,-0.19446 0.28019,-0.35356 0.23157,-0.35356 -0.0486,0 -0.23237,0.1591 -0.40835,0.35356 -0.17598,0.19445 -0.28019,0.35355 -0.23158,0.35355 0.0486,0 0.23238,-0.1591 0.40836,-0.35355 z m 0.97227,-1.14905 c 0.22834,-0.24307 0.3754,-0.44194 0.32679,-0.44194 -0.0486,0 -0.27523,0.19887 -0.50357,0.44194 -0.22834,0.24307 -0.3754,0.44194 -0.32679,0.44194 0.0486,0 0.27523,-0.19887 0.50357,-0.44194 z m 1.06066,-1.23744 c 0.22834,-0.24307 0.3754,-0.44194 0.32679,-0.44194 -0.0486,0 -0.27522,0.19887 -0.50357,0.44194 -0.22834,0.24307 -0.3754,0.44194 -0.32679,0.44194 0.0486,0 0.27523,-0.19887 0.50357,-0.44194 z m 0.88388,-1.06066 c 0.22835,-0.24307 0.37541,-0.44194 0.32679,-0.44194 -0.0486,0 -0.27522,0.19887 -0.50356,0.44194 -0.22835,0.24307 -0.37541,0.44194 -0.32679,0.44194 0.0486,0 0.27522,-0.19887 0.50356,-0.44194 z m 6.40386,-7.49583 5.36122,-6.2584 -0.16939,-1.02424 c -0.19262,-1.16459 -0.36593,-1.21125 -0.50999,-0.13728 -0.15278,1.13916 -2.26931,4.03934 -8.30516,11.38022 -3.64588,4.43416 -2.41859,3.09272 3.62332,-3.9603 z"
       id="path1083"
       inkscape:connector-curvature="0"
       transform="matrix(0.26458333,0,0,0.26458333,0,87)" />
    <path
       style="opacity:1;fill:#e3dbdb;fill-opacity:1;stroke:#e3dbdb;stroke-width:0.01181102;stroke-linecap:butt;stroke-linejoin:round;stroke-miterlimit:4;stroke-dasharray:none;stroke-dashoffset:0;stroke-opacity:1;paint-order:markers stroke fill"
       d="m 845.02988,378.99819 c -0.18906,-0.022 -0.63203,-0.0633 -0.98437,-0.0919 -0.35235,-0.0286 -0.673,-0.0584 -0.71256,-0.0663 -0.0647,-0.0128 -0.0375,-0.0511 0.26998,-0.38046 0.5317,-0.56945 1.79941,-2.00406 3.36665,-3.80989 1.85712,-2.13984 2.92901,-3.35426 2.94579,-3.33748 0.017,0.017 -0.56593,0.74485 -1.91455,2.39055 -2.25561,2.7525 -2.94969,3.66004 -3.32916,4.35304 -0.10273,0.18762 -0.13395,0.27845 -0.1357,0.3949 -0.004,0.29496 0.12789,0.38627 0.74533,0.51428 0.41995,0.0871 0.3227,0.0999 -0.25141,0.0333 z"
       id="path1085"
       inkscape:connector-curvature="0"
       transform="matrix(0.26458333,0,0,0.26458333,0,87)" />
    <path
       style="opacity:1;fill:#e3dbdb;fill-opacity:1;stroke:#e3dbdb;stroke-width:0.01181102;stroke-linecap:butt;stroke-linejoin:round;stroke-miterlimit:4;stroke-dasharray:none;stroke-dashoffset:0;stroke-opacity:1;paint-order:markers stroke fill"
       d="m 880.74787,397.10371 c -1.06403,-1.14346 -2.8369,-2.88751 -4.09443,-4.02788 -4.92588,-4.46693 -9.94736,-7.61169 -16.13918,-10.10737 -3.83434,-1.54547 -6.78539,-2.43077 -10.40625,-3.12184 -1.45692,-0.27806 -4.11858,-0.73789 -4.54218,-0.78471 -0.65786,-0.0727 -2.08238,-0.2025 -2.22345,-0.20258 -0.11622,-6e-5 -0.1483,0.0225 -0.45661,0.32076 l -0.33162,0.32084 -0.16516,-0.13506 c -0.0908,-0.0743 -0.242,-0.20356 -0.33593,-0.28728 -0.16625,-0.14818 -0.16944,-0.15412 -0.12042,-0.22412 0.0277,-0.0396 0.0504,-0.0793 0.0504,-0.0884 0,-0.009 -0.31993,-0.0165 -0.71094,-0.0165 -0.39102,0 -5.3375,-0.0176 -10.99219,-0.0391 -5.65469,-0.0215 -11.93008,-0.0391 -13.94531,-0.0391 h -3.66406 v -8.46875 -8.46875 h 34.29687 34.29688 V 379.687 c 0,9.87422 -0.004,17.95312 -0.009,17.95312 -0.005,0 -0.23323,-0.24143 -0.50782,-0.53651 z m -29.69561,-27.10411 0.0336,-0.0625 -0.0706,0.0625 c -0.0388,0.0344 -0.15595,0.16094 -0.26032,0.28125 l -0.18975,0.21875 0.22673,-0.21875 c 0.12471,-0.12031 0.24185,-0.24688 0.26032,-0.28125 z m 0.86903,-1.03906 0.23359,-0.24219 -0.24219,0.23359 c -0.1332,0.12848 -0.24218,0.23746 -0.24218,0.24219 0,0.0229 0.0338,-0.009 0.25078,-0.23359 z m 1.07033,-1.24219 0.12776,-0.15625 -0.16442,0.15625 c -0.0904,0.0859 -0.19382,0.19844 -0.22976,0.25 l -0.0653,0.0937 0.102,-0.0937 c 0.0561,-0.0516 0.15949,-0.16406 0.22977,-0.25 z m 0.92889,-1.10408 c 0,-0.0165 -0.085,0.0477 -0.19532,0.14743 -0.0473,0.0427 -0.0859,0.0921 -0.0859,0.10963 0,0.0175 0.0633,-0.0302 0.14062,-0.10611 0.0773,-0.0759 0.14063,-0.14383 0.14063,-0.15095 z"
       id="path1087"
       inkscape:connector-curvature="0"
       transform="matrix(0.26458333,0,0,0.26458333,0,87)" />
    <path
       style="opacity:1;fill:#e3dbdb;fill-opacity:1;stroke:#e3dbdb;stroke-width:0.01670331;stroke-linecap:butt;stroke-linejoin:round;stroke-miterlimit:4;stroke-dasharray:none;stroke-dashoffset:0;stroke-opacity:1;paint-order:markers stroke fill"
       d="m 895.00981,316.53663 c 0.008,-0.0285 0.79921,-1.01196 1.75933,-2.18545 4.54717,-5.55772 6.50526,-8.12589 7.39204,-9.69515 0.30922,-0.54721 0.46236,-0.94842 0.51959,-1.36127 0.12357,-0.89146 0.26384,-0.6859 0.50304,0.73719 l 0.1031,0.61336 -3.45018,4.02703 c -5.38805,6.28891 -6.85798,7.9822 -6.82692,7.86429 z"
       id="path1089"
       inkscape:connector-curvature="0"
       transform="matrix(0.26458333,0,0,0.26458333,0,87)" />
    <path
       style="opacity:1;fill:#e3dbdb;fill-opacity:1;stroke:#e3dbdb;stroke-width:0.03340662;stroke-linecap:butt;stroke-linejoin:round;stroke-miterlimit:4;stroke-dasharray:none;stroke-dashoffset:0;stroke-opacity:1;paint-order:markers stroke fill"
       d="m 422.30706,261.63936 c -3.30127,-5.59508 -8.1448,-11.1059 -13.4709,-15.32676 -6.54872,-5.18979 -14.40518,-8.95559 -22.56379,-10.81541 l -1.30106,-0.29658 48.06116,-0.006 48.06117,-0.006 v 0.25425 0.25425 l -18.09752,0.0531 c -26.9826,0.0792 -54.41659,0.22738 -59.86101,0.3233 -8.02993,0.14147 -11.40209,0.32155 -11.40209,0.6089 0,0.0372 0.706,0.33766 1.56889,0.66759 12.33398,4.71597 22.34321,12.99993 28.94224,23.95352 0.62964,1.04513 0.75242,1.28545 0.65675,1.28545 -0.0183,0 -0.28549,-0.42758 -0.59384,-0.95018 z"
       id="path1091"
       inkscape:connector-curvature="0"
       transform="matrix(0.26458333,0,0,0.26458333,0,87)" />
    <path
       style="opacity:1;fill:#e3dbdb;fill-opacity:1;stroke:#e3dbdb;stroke-width:0.02362205;stroke-linecap:butt;stroke-linejoin:round;stroke-miterlimit:4;stroke-dasharray:none;stroke-dashoffset:0;stroke-opacity:1;paint-order:markers stroke fill"
       d="m 217.73591,390.13708 c 0.10337,-0.12891 15.2456,-18.17813 33.64938,-40.10938 30.57533,-36.43571 33.47865,-39.87669 33.66105,-39.89458 0.10979,-0.0108 0.19962,-0.003 0.19962,0.0165 0,0.0199 -2.00498,2.41929 -4.4555,5.33208 -12.98523,15.43477 -30.3039,36.05509 -41.32416,49.20224 -3.84667,4.58906 -7.56023,9.01875 -8.25237,9.84375 -4.09811,4.88479 -8.35723,10.01986 -9.04826,10.90918 -0.90507,1.16477 -1.51621,2.04641 -1.45853,2.10408 0.039,0.039 0.44053,-0.15796 4.63304,-2.27322 2.15039,-1.08495 4.66492,-2.23699 4.79094,-2.19498 0.0327,0.0109 -0.38512,0.21483 -0.92848,0.45319 -3.7648,1.65152 -7.95127,4.09725 -11.09362,6.48088 -0.26437,0.20054 -0.49877,0.36462 -0.52087,0.36462 -0.0221,0 0.0444,-0.10547 0.14776,-0.23437 z"
       id="path1093"
       inkscape:connector-curvature="0"
       transform="matrix(0.26458333,0,0,0.26458333,0,87)" />
    <path
       style="opacity:1;fill:#101010;fill-opacity:0.42745098;stroke:none;stroke-width:0.02362205;stroke-linecap:butt;stroke-linejoin:round;stroke-miterlimit:4;stroke-dasharray:none;stroke-dashoffset:0;stroke-opacity:1;paint-order:markers stroke fill"
       d="m 269.55846,381.42284 c -1.49711,-0.49181 -3.65198,-1.07849 -5.25,-1.42935 l -0.65625,-0.14408 25.96875,0.01 c 14.28281,0.005 24.18281,0.0157 22,0.0229 -38.7906,0.12814 -45.93556,0.16686 -45.85395,0.24848 0.0119,0.0119 0.46911,0.14841 1.01595,0.30329 0.97276,0.27552 3.33972,1.05442 3.5255,1.16016 0.19405,0.11045 -0.0903,0.0456 -0.75,-0.17117 z"
       id="path1095"
       inkscape:connector-curvature="0"
       transform="matrix(0.26458333,0,0,0.26458333,0,87)" />
    <path
       style="opacity:1;fill:#101010;fill-opacity:0.42745098;stroke:none;stroke-width:0.00590551;stroke-linecap:butt;stroke-linejoin:round;stroke-miterlimit:4;stroke-dasharray:none;stroke-dashoffset:0;stroke-opacity:1;paint-order:markers stroke fill"
       d="m 272.90596,382.62933 c -0.58087,-0.23215 -1.3464,-0.51559 -2.125,-0.78677 -0.65542,-0.22827 -0.65673,-0.22876 -0.59375,-0.21888 0.18872,0.0296 0.1966,0.0297 0.17387,0.002 -0.0118,-0.0143 -0.0156,-0.026 -0.008,-0.026 0.0625,0 2.81843,1.09158 2.86443,1.13454 0.0247,0.0231 -0.0747,-0.0105 -0.3112,-0.105 z"
       id="path1097"
       inkscape:connector-curvature="0"
       transform="matrix(0.26458333,0,0,0.26458333,0,87)" />
    <path
       style="opacity:1;fill:#101010;fill-opacity:0.42745098;stroke:none;stroke-width:0.00590551;stroke-linecap:butt;stroke-linejoin:round;stroke-miterlimit:4;stroke-dasharray:none;stroke-dashoffset:0;stroke-opacity:1;paint-order:markers stroke fill"
       d="m 268.31221,380.90588 c -0.10742,-0.0366 -0.36282,-0.1185 -0.56754,-0.18202 -0.20473,-0.0635 -0.36484,-0.11797 -0.35579,-0.12098 0.009,-0.003 0.20818,0.0546 0.44254,0.12801 0.51183,0.16034 0.7496,0.24153 0.70735,0.24151 -0.0172,0 -0.11914,-0.0299 -0.22656,-0.0665 z"
       id="path1101"
       inkscape:connector-curvature="0"
       transform="matrix(0.26458333,0,0,0.26458333,0,87)" />
    <path
       style="opacity:1;fill:#101010;fill-opacity:0.42745098;stroke:none;stroke-width:0.00147638;stroke-linecap:butt;stroke-linejoin:round;stroke-miterlimit:4;stroke-dasharray:none;stroke-dashoffset:0;stroke-opacity:1;paint-order:markers stroke fill"
       d="m 267.36578,380.60697 c -0.11416,-0.0364 -0.41226,-0.12476 -0.66992,-0.19861 -0.14717,-0.0422 -0.33086,-0.0953 -0.4082,-0.11792 -0.0774,-0.0227 -0.15363,-0.0449 -0.16952,-0.0493 -0.0159,-0.004 -0.027,-0.009 -0.0246,-0.01 0.009,-0.003 0.5276,0.13784 0.85231,0.23148 0.21969,0.0634 0.48561,0.1425 0.48811,0.14528 0.002,0.002 -0.0111,3.7e-4 -0.0335,-0.005 -0.0168,-0.004 -0.007,0.004 0.0161,0.0135 0.0338,0.0136 0.006,0.008 -0.0508,-0.01 z"
       id="path1107"
       inkscape:connector-curvature="0"
       transform="matrix(0.26458333,0,0,0.26458333,0,87)" />
    <path
       style="opacity:1;fill:#101010;fill-opacity:0.42745098;stroke:none;stroke-width:0.00147638;stroke-linecap:butt;stroke-linejoin:round;stroke-miterlimit:4;stroke-dasharray:none;stroke-dashoffset:0;stroke-opacity:1;paint-order:markers stroke fill"
       d="m 270.34495,381.61622 c -0.032,-0.0385 -0.4813,-0.20044 -1.40491,-0.5063 -0.18904,-0.0626 -0.35947,-0.11855 -0.37873,-0.12433 -0.0282,-0.008 -0.0331,-0.011 -0.0254,-0.0131 0.009,-0.002 0.007,-0.004 -0.0158,-0.0143 -0.014,-0.006 -0.0321,-0.0139 -0.0403,-0.0165 -0.008,-0.003 -0.014,-0.006 -0.0129,-0.007 0.008,-0.008 1.06042,0.35632 1.58839,0.54891 0.30032,0.10955 0.30463,0.11122 0.29808,0.11601 -0.005,0.004 -0.005,0.006 -0.002,0.0129 0.005,0.009 4e-5,0.0116 -0.007,0.003 z"
       id="path1109"
       inkscape:connector-curvature="0"
       transform="matrix(0.26458333,0,0,0.26458333,0,87)" />
    <path
       style="opacity:1;fill:#101010;fill-opacity:0.42745098;stroke:none;stroke-width:0.01181102;stroke-linecap:butt;stroke-linejoin:round;stroke-miterlimit:4;stroke-dasharray:none;stroke-dashoffset:0;stroke-opacity:1;paint-order:markers stroke fill"
       d="m 307.00197,450.21515 c 0,-0.021 0.0768,-0.33625 0.17062,-0.70052 0.64719,-2.51239 1.1434,-5.27136 1.45117,-8.06857 0.0728,-0.66146 0.0811,-0.513 0.0175,0.3125 -0.20384,2.64594 -0.51704,4.35739 -1.40968,7.70312 -0.19318,0.72407 -0.2296,0.84359 -0.2296,0.75347 z"
       id="path1111"
       inkscape:connector-curvature="0"
       transform="matrix(0.26458333,0,0,0.26458333,0,87)" />
    <path
       style="opacity:1;fill:#e3dbdb;fill-opacity:1;stroke:none;stroke-width:0.00295276;stroke-linecap:butt;stroke-linejoin:round;stroke-miterlimit:4;stroke-dasharray:none;stroke-dashoffset:0;stroke-opacity:1;paint-order:markers stroke fill"
       d="m 400.67049,340.84562 1e-4,-0.0801 0.14248,-0.0774 c 2.35477,-1.27855 4.71179,-2.79421 6.91115,-4.44414 0.21652,-0.16243 0.39512,-0.29388 0.39689,-0.29211 0.002,0.002 -0.0892,0.0751 -0.20226,0.16296 -2.07086,1.60976 -4.14599,3.01652 -6.32658,4.2889 -0.31473,0.18364 -0.91011,0.52191 -0.91862,0.52191 -0.002,0 -0.003,-0.036 -0.003,-0.0801 z"
       id="path888"
       inkscape:connector-curvature="0"
       transform="matrix(0.26458333,0,0,0.26458333,0,87)" />
    <path
       style="opacity:1;fill:#e3dbdb;fill-opacity:1;stroke:none;stroke-width:0.01181102;stroke-linecap:butt;stroke-linejoin:round;stroke-miterlimit:4;stroke-dasharray:none;stroke-dashoffset:0;stroke-opacity:1;paint-order:markers stroke fill"
       d="m 379.58696,347.31088 c 0,-0.0141 0.17226,-0.0431 0.38281,-0.0643 0.67386,-0.0682 1.97972,-0.24993 2.96094,-0.41219 5.88816,-0.97366 11.68723,-2.90898 16.92707,-5.64907 0.43255,-0.22619 0.79302,-0.41126 0.80105,-0.41126 0.008,0 0.021,0.0335 0.0288,0.0744 0.013,0.0678 -0.0326,0.1 -0.5198,0.36675 -0.2937,0.16081 -0.96995,0.51113 -1.50276,0.77848 -5.69218,2.8562 -11.70268,4.5892 -18.3125,5.28005 -0.66283,0.0693 -0.76562,0.0743 -0.76562,0.0372 z"
       id="path890"
       inkscape:connector-curvature="0"
       transform="matrix(0.26458333,0,0,0.26458333,0,87)" />
    <path
       style="opacity:1;fill:#e3dbdb;fill-opacity:1;stroke:none;stroke-width:0.01181102;stroke-linecap:butt;stroke-linejoin:round;stroke-miterlimit:4;stroke-dasharray:none;stroke-dashoffset:0;stroke-opacity:1;paint-order:markers stroke fill"
       d="m 417.14946,327.32191 c 0,-0.01 0.15906,-0.21127 0.35347,-0.44715 2.5465,-3.08971 4.65248,-6.29634 6.65939,-10.13981 0.22705,-0.43483 0.24589,-0.46094 0.33266,-0.46094 0.0506,0 0.092,0.009 0.092,0.0208 0,0.0114 -0.1143,0.23993 -0.254,0.50781 -1.84776,3.54333 -3.98526,6.74124 -6.59648,9.86897 -0.49599,0.59411 -0.58702,0.69496 -0.58702,0.65037 z"
       id="path892"
       inkscape:connector-curvature="0"
       transform="matrix(0.26458333,0,0,0.26458333,0,87)" />
    <path
       style="opacity:1;fill:#e3dbdb;fill-opacity:1;stroke:none;stroke-width:0.01181102;stroke-linecap:butt;stroke-linejoin:round;stroke-miterlimit:4;stroke-dasharray:none;stroke-dashoffset:0;stroke-opacity:1;paint-order:markers stroke fill"
       d="m 424.37506,316.34637 c 0,-0.008 0.18784,-0.40668 0.41742,-0.88664 2.10073,-4.39184 3.54059,-8.69132 4.53072,-13.52891 0.0422,-0.20625 0.0782,-0.34334 0.0799,-0.30464 0.002,0.0387 -0.0609,0.40433 -0.13916,0.8125 -0.90962,4.7425 -2.32878,9.03561 -4.39424,13.29305 -0.23942,0.49351 -0.29148,0.57979 -0.34184,0.56662 -0.0327,-0.009 -0.0804,0.002 -0.10612,0.0232 -0.0257,0.0213 -0.0467,0.0325 -0.0467,0.0248 z"
       id="path894"
       inkscape:connector-curvature="0"
       transform="matrix(0.26458333,0,0,0.26458333,0,87)" />
    <path
       style="opacity:1;fill:#e3dbdb;fill-opacity:1;stroke:none;stroke-width:0.04724409;stroke-linecap:butt;stroke-linejoin:round;stroke-miterlimit:4;stroke-dasharray:none;stroke-dashoffset:0;stroke-opacity:1;paint-order:markers stroke fill"
       d="m 284.42878,310.70887 c 0,-0.12617 38.89846,-46.47312 38.95604,-46.41555 0.0254,0.0254 -0.31512,0.80034 -0.75665,1.72214 -2.70461,5.6465 -4.33243,11.04453 -5.26313,17.4531 l -0.17759,1.2229 0.0601,-1.59254 c 0.0608,-1.61226 0.39299,-3.90713 0.75267,-5.20014 0.10822,-0.38903 0.90025,-2.84482 1.76007,-5.45732 1.8676,-5.67456 1.72133,-5.18495 1.45141,-4.85825 -0.12122,0.14672 -2.50326,2.95922 -5.29343,6.25 -2.79017,3.29079 -10.8271,12.81762 -17.85984,21.17075 -7.03274,8.35312 -12.81295,15.16795 -12.8449,15.14405 -0.0319,-0.0239 -0.22158,0.11319 -0.42141,0.30464 -0.19982,0.19144 -0.36332,0.30674 -0.36332,0.25622 z"
       id="path896"
       inkscape:connector-curvature="0"
       transform="matrix(0.26458333,0,0,0.26458333,0,87)" />
    <path
       style="opacity:1;fill:#e3dbdb;fill-opacity:1;stroke:none;stroke-width:0.04724409;stroke-linecap:butt;stroke-linejoin:round;stroke-miterlimit:4;stroke-dasharray:none;stroke-dashoffset:0;stroke-opacity:1;paint-order:markers stroke fill"
       d="m 350.55378,342.8329 c -8.83804,-3.96932 -16.31098,-9.86764 -22.19263,-17.51644 -5.92471,-7.70481 -10.56967,-18.80869 -10.98087,-26.25 -0.07,-1.26599 -0.0614,-1.23381 0.37177,1.40545 0.36527,2.2253 1.17941,5.54077 1.92629,7.84455 4.31991,13.32486 13.4983,24.64739 25.68794,31.68885 1.12424,0.64943 4.04061,2.10739 6.3125,3.15577 0.24063,0.11104 0.35313,0.20262 0.25,0.20351 -0.10312,8.8e-4 -0.72187,-0.23837 -1.375,-0.53169 z"
       id="path898"
       inkscape:connector-curvature="0"
       transform="matrix(0.26458333,0,0,0.26458333,0,87)" />
  </g>
</svg>
