<?xml version="1.0" encoding="utf-8" standalone="no"?>
<!DOCTYPE svg PUBLIC "-//W3C//DTD SVG 1.1//EN"
  "http://www.w3.org/Graphics/SVG/1.1/DTD/svg11.dtd">
<!-- Created with matplotlib (https://matplotlib.org/) -->
<svg height="451.088507pt" version="1.1" viewBox="0 0 601.304067 451.088507" width="601.304067pt" xmlns="http://www.w3.org/2000/svg" xmlns:xlink="http://www.w3.org/1999/xlink">
 <defs>
  <style type="text/css">
*{stroke-linecap:butt;stroke-linejoin:round;}
  </style>
 </defs>
 <g id="figure_1">
  <g id="patch_1">
   <path d="M 0 451.088507 
L 601.304067 451.088507 
L 601.304067 0 
L 0 0 
z
" style="fill:#ffffff;"/>
  </g>
  <g id="axes_1">
   <g id="patch_2">
    <path d="M 226.352843 115.819238 
C 226.352843 103.340705 223.417631 91.035378 217.785056 79.900393 
C 212.152481 68.765408 203.978907 59.10988 193.926662 51.716224 
C 183.874417 44.322567 172.222558 39.396036 159.915268 37.335839 
C 147.607978 35.275643 134.986917 36.138975 123.074804 39.855876 
L 146.777427 115.819238 
L 226.352843 115.819238 
z
" style="fill:#3d5941;"/>
   </g>
   <g id="patch_3">
    <path d="M 123.074804 39.855876 
C 117.938578 41.458518 112.978111 43.57796 108.269599 46.181649 
C 103.561087 48.785337 99.128761 51.859871 95.040705 55.358025 
L 146.777427 115.819238 
L 123.074804 39.855876 
z
" style="fill:#778868;"/>
   </g>
   <g id="patch_4">
    <path d="M 95.040705 55.358025 
C 88.471894 60.978963 82.8628 67.633022 78.434312 75.058163 
C 74.005823 82.483304 70.816843 90.580763 68.992956 99.03166 
L 146.777427 115.819238 
L 95.040705 55.358025 
z
" style="fill:#b5b991;"/>
   </g>
   <g id="patch_5">
    <path d="M 68.992956 99.03166 
C 66.282573 111.590095 66.653449 124.620106 70.073771 137.004042 
C 73.494094 149.387977 79.863192 160.761337 88.634755 170.148571 
C 97.406318 179.535804 108.32217 186.660613 120.446002 190.911866 
C 132.569835 195.163119 145.544803 196.415689 158.257977 194.562134 
L 146.777427 115.819238 
L 68.992956 99.03166 
z
" style="fill:#f6edbd;"/>
   </g>
   <g id="patch_6">
    <path d="M 158.257977 194.562134 
C 163.582141 193.785882 168.813874 192.471642 173.872817 190.6396 
C 178.93176 188.807558 183.791876 186.467144 188.378512 183.654307 
L 146.777427 115.819238 
L 158.257977 194.562134 
z
" style="fill:#edbb8a;"/>
   </g>
   <g id="patch_7">
    <path d="M 188.378512 183.654307 
C 197.575204 178.014268 205.529599 170.562441 211.75702 161.752877 
C 217.984442 152.943314 222.355785 142.958651 224.604697 132.407273 
L 146.777427 115.819238 
L 188.378512 183.654307 
z
" style="fill:#de8a5a;"/>
   </g>
   <g id="patch_8">
    <path d="M 224.604697 132.407273 
C 225.185403 129.682733 225.622639 126.929578 225.9146 124.159181 
C 226.206561 121.388785 226.352843 118.604967 226.352843 115.819229 
L 146.777427 115.819238 
L 224.604697 132.407273 
z
" style="fill:#ca562c;"/>
   </g>
   <g id="patch_9">
    <path clip-path="url(#pcebcbd2b7b)" d="M 146.777427 171.522029 
C 161.54998 171.522029 175.719476 165.652831 186.165249 155.207059 
C 196.611021 144.761287 202.480218 130.591791 202.480218 115.819238 
C 202.480218 101.046685 196.611021 86.877189 186.165249 76.431417 
C 175.719476 65.985645 161.54998 60.116447 146.777427 60.116447 
C 132.004875 60.116447 117.835379 65.985645 107.389606 76.431417 
C 96.943834 86.877189 91.074637 101.046685 91.074637 115.819238 
C 91.074637 130.591791 96.943834 144.761287 107.389606 155.207059 
C 117.835379 165.652831 132.004875 171.522029 146.777427 171.522029 
z
" style="fill:#ffffff;stroke:#ffffff;stroke-linejoin:miter;"/>
   </g>
   <g id="matplotlib.axis_1"/>
   <g id="matplotlib.axis_2"/>
   <g id="text_1">
    <!-- Utilities -->
    <defs>
     <path d="M 8.6875 72.90625 
L 18.609375 72.90625 
L 18.609375 28.609375 
Q 18.609375 16.890625 22.84375 11.734375 
Q 27.09375 6.59375 36.625 6.59375 
Q 46.09375 6.59375 50.34375 11.734375 
Q 54.59375 16.890625 54.59375 28.609375 
L 54.59375 72.90625 
L 64.5 72.90625 
L 64.5 27.390625 
Q 64.5 13.140625 57.4375 5.859375 
Q 50.390625 -1.421875 36.625 -1.421875 
Q 22.796875 -1.421875 15.734375 5.859375 
Q 8.6875 13.140625 8.6875 27.390625 
z
" id="DejaVuSans-85"/>
     <path d="M 18.3125 70.21875 
L 18.3125 54.6875 
L 36.8125 54.6875 
L 36.8125 47.703125 
L 18.3125 47.703125 
L 18.3125 18.015625 
Q 18.3125 11.328125 20.140625 9.421875 
Q 21.96875 7.515625 27.59375 7.515625 
L 36.8125 7.515625 
L 36.8125 0 
L 27.59375 0 
Q 17.1875 0 13.234375 3.875 
Q 9.28125 7.765625 9.28125 18.015625 
L 9.28125 47.703125 
L 2.6875 47.703125 
L 2.6875 54.6875 
L 9.28125 54.6875 
L 9.28125 70.21875 
z
" id="DejaVuSans-116"/>
     <path d="M 9.421875 54.6875 
L 18.40625 54.6875 
L 18.40625 0 
L 9.421875 0 
z
M 9.421875 75.984375 
L 18.40625 75.984375 
L 18.40625 64.59375 
L 9.421875 64.59375 
z
" id="DejaVuSans-105"/>
     <path d="M 9.421875 75.984375 
L 18.40625 75.984375 
L 18.40625 0 
L 9.421875 0 
z
" id="DejaVuSans-108"/>
     <path d="M 56.203125 29.59375 
L 56.203125 25.203125 
L 14.890625 25.203125 
Q 15.484375 15.921875 20.484375 11.0625 
Q 25.484375 6.203125 34.421875 6.203125 
Q 39.59375 6.203125 44.453125 7.46875 
Q 49.3125 8.734375 54.109375 11.28125 
L 54.109375 2.78125 
Q 49.265625 0.734375 44.1875 -0.34375 
Q 39.109375 -1.421875 33.890625 -1.421875 
Q 20.796875 -1.421875 13.15625 6.1875 
Q 5.515625 13.8125 5.515625 26.8125 
Q 5.515625 40.234375 12.765625 48.109375 
Q 20.015625 56 32.328125 56 
Q 43.359375 56 49.78125 48.890625 
Q 56.203125 41.796875 56.203125 29.59375 
z
M 47.21875 32.234375 
Q 47.125 39.59375 43.09375 43.984375 
Q 39.0625 48.390625 32.421875 48.390625 
Q 24.90625 48.390625 20.390625 44.140625 
Q 15.875 39.890625 15.1875 32.171875 
z
" id="DejaVuSans-101"/>
     <path d="M 44.28125 53.078125 
L 44.28125 44.578125 
Q 40.484375 46.53125 36.375 47.5 
Q 32.28125 48.484375 27.875 48.484375 
Q 21.1875 48.484375 17.84375 46.4375 
Q 14.5 44.390625 14.5 40.28125 
Q 14.5 37.15625 16.890625 35.375 
Q 19.28125 33.59375 26.515625 31.984375 
L 29.59375 31.296875 
Q 39.15625 29.25 43.1875 25.515625 
Q 47.21875 21.78125 47.21875 15.09375 
Q 47.21875 7.46875 41.1875 3.015625 
Q 35.15625 -1.421875 24.609375 -1.421875 
Q 20.21875 -1.421875 15.453125 -0.5625 
Q 10.6875 0.296875 5.421875 2 
L 5.421875 11.28125 
Q 10.40625 8.6875 15.234375 7.390625 
Q 20.0625 6.109375 24.8125 6.109375 
Q 31.15625 6.109375 34.5625 8.28125 
Q 37.984375 10.453125 37.984375 14.40625 
Q 37.984375 18.0625 35.515625 20.015625 
Q 33.0625 21.96875 24.703125 23.78125 
L 21.578125 24.515625 
Q 13.234375 26.265625 9.515625 29.90625 
Q 5.8125 33.546875 5.8125 39.890625 
Q 5.8125 47.609375 11.28125 51.796875 
Q 16.75 56 26.8125 56 
Q 31.78125 56 36.171875 55.265625 
Q 40.578125 54.546875 44.28125 53.078125 
z
" id="DejaVuSans-115"/>
    </defs>
    <g transform="translate(198.641585 48.065297)scale(0.1 -0.1)">
     <use xlink:href="#DejaVuSans-85"/>
     <use x="73.193359" xlink:href="#DejaVuSans-116"/>
     <use x="112.402344" xlink:href="#DejaVuSans-105"/>
     <use x="140.185547" xlink:href="#DejaVuSans-108"/>
     <use x="167.96875" xlink:href="#DejaVuSans-105"/>
     <use x="195.751953" xlink:href="#DejaVuSans-116"/>
     <use x="234.960938" xlink:href="#DejaVuSans-105"/>
     <use x="262.744141" xlink:href="#DejaVuSans-101"/>
     <use x="324.267578" xlink:href="#DejaVuSans-115"/>
    </g>
   </g>
   <g id="text_2">
    <!-- 30% -->
    <defs>
     <path d="M 40.578125 39.3125 
Q 47.65625 37.796875 51.625 33 
Q 55.609375 28.21875 55.609375 21.1875 
Q 55.609375 10.40625 48.1875 4.484375 
Q 40.765625 -1.421875 27.09375 -1.421875 
Q 22.515625 -1.421875 17.65625 -0.515625 
Q 12.796875 0.390625 7.625 2.203125 
L 7.625 11.71875 
Q 11.71875 9.328125 16.59375 8.109375 
Q 21.484375 6.890625 26.8125 6.890625 
Q 36.078125 6.890625 40.9375 10.546875 
Q 45.796875 14.203125 45.796875 21.1875 
Q 45.796875 27.640625 41.28125 31.265625 
Q 36.765625 34.90625 28.71875 34.90625 
L 20.21875 34.90625 
L 20.21875 43.015625 
L 29.109375 43.015625 
Q 36.375 43.015625 40.234375 45.921875 
Q 44.09375 48.828125 44.09375 54.296875 
Q 44.09375 59.90625 40.109375 62.90625 
Q 36.140625 65.921875 28.71875 65.921875 
Q 24.65625 65.921875 20.015625 65.03125 
Q 15.375 64.15625 9.8125 62.3125 
L 9.8125 71.09375 
Q 15.4375 72.65625 20.34375 73.4375 
Q 25.25 74.21875 29.59375 74.21875 
Q 40.828125 74.21875 47.359375 69.109375 
Q 53.90625 64.015625 53.90625 55.328125 
Q 53.90625 49.265625 50.4375 45.09375 
Q 46.96875 40.921875 40.578125 39.3125 
z
" id="DejaVuSans-51"/>
     <path d="M 31.78125 66.40625 
Q 24.171875 66.40625 20.328125 58.90625 
Q 16.5 51.421875 16.5 36.375 
Q 16.5 21.390625 20.328125 13.890625 
Q 24.171875 6.390625 31.78125 6.390625 
Q 39.453125 6.390625 43.28125 13.890625 
Q 47.125 21.390625 47.125 36.375 
Q 47.125 51.421875 43.28125 58.90625 
Q 39.453125 66.40625 31.78125 66.40625 
z
M 31.78125 74.21875 
Q 44.046875 74.21875 50.515625 64.515625 
Q 56.984375 54.828125 56.984375 36.375 
Q 56.984375 17.96875 50.515625 8.265625 
Q 44.046875 -1.421875 31.78125 -1.421875 
Q 19.53125 -1.421875 13.0625 8.265625 
Q 6.59375 17.96875 6.59375 36.375 
Q 6.59375 54.828125 13.0625 64.515625 
Q 19.53125 74.21875 31.78125 74.21875 
z
" id="DejaVuSans-48"/>
     <path d="M 72.703125 32.078125 
Q 68.453125 32.078125 66.03125 28.46875 
Q 63.625 24.859375 63.625 18.40625 
Q 63.625 12.0625 66.03125 8.421875 
Q 68.453125 4.78125 72.703125 4.78125 
Q 76.859375 4.78125 79.265625 8.421875 
Q 81.6875 12.0625 81.6875 18.40625 
Q 81.6875 24.8125 79.265625 28.4375 
Q 76.859375 32.078125 72.703125 32.078125 
z
M 72.703125 38.28125 
Q 80.421875 38.28125 84.953125 32.90625 
Q 89.5 27.546875 89.5 18.40625 
Q 89.5 9.28125 84.9375 3.921875 
Q 80.375 -1.421875 72.703125 -1.421875 
Q 64.890625 -1.421875 60.34375 3.921875 
Q 55.8125 9.28125 55.8125 18.40625 
Q 55.8125 27.59375 60.375 32.9375 
Q 64.9375 38.28125 72.703125 38.28125 
z
M 22.3125 68.015625 
Q 18.109375 68.015625 15.6875 64.375 
Q 13.28125 60.75 13.28125 54.390625 
Q 13.28125 47.953125 15.671875 44.328125 
Q 18.0625 40.71875 22.3125 40.71875 
Q 26.5625 40.71875 28.96875 44.328125 
Q 31.390625 47.953125 31.390625 54.390625 
Q 31.390625 60.6875 28.953125 64.34375 
Q 26.515625 68.015625 22.3125 68.015625 
z
M 66.40625 74.21875 
L 74.21875 74.21875 
L 28.609375 -1.421875 
L 20.796875 -1.421875 
z
M 22.3125 74.21875 
Q 30.03125 74.21875 34.609375 68.875 
Q 39.203125 63.53125 39.203125 54.390625 
Q 39.203125 45.171875 34.640625 39.84375 
Q 30.078125 34.515625 22.3125 34.515625 
Q 14.546875 34.515625 10.03125 39.859375 
Q 5.515625 45.21875 5.515625 54.390625 
Q 5.515625 63.484375 10.046875 68.84375 
Q 14.59375 74.21875 22.3125 74.21875 
z
" id="DejaVuSans-37"/>
    </defs>
    <g transform="translate(161.596225 83.321955)scale(0.1 -0.1)">
     <use xlink:href="#DejaVuSans-51"/>
     <use x="63.623047" xlink:href="#DejaVuSans-48"/>
     <use x="127.246094" xlink:href="#DejaVuSans-37"/>
    </g>
   </g>
   <g id="text_3">
    <!-- Labor -->
    <defs>
     <path d="M 9.8125 72.90625 
L 19.671875 72.90625 
L 19.671875 8.296875 
L 55.171875 8.296875 
L 55.171875 0 
L 9.8125 0 
z
" id="DejaVuSans-76"/>
     <path d="M 34.28125 27.484375 
Q 23.390625 27.484375 19.1875 25 
Q 14.984375 22.515625 14.984375 16.5 
Q 14.984375 11.71875 18.140625 8.90625 
Q 21.296875 6.109375 26.703125 6.109375 
Q 34.1875 6.109375 38.703125 11.40625 
Q 43.21875 16.703125 43.21875 25.484375 
L 43.21875 27.484375 
z
M 52.203125 31.203125 
L 52.203125 0 
L 43.21875 0 
L 43.21875 8.296875 
Q 40.140625 3.328125 35.546875 0.953125 
Q 30.953125 -1.421875 24.3125 -1.421875 
Q 15.921875 -1.421875 10.953125 3.296875 
Q 6 8.015625 6 15.921875 
Q 6 25.140625 12.171875 29.828125 
Q 18.359375 34.515625 30.609375 34.515625 
L 43.21875 34.515625 
L 43.21875 35.40625 
Q 43.21875 41.609375 39.140625 45 
Q 35.0625 48.390625 27.6875 48.390625 
Q 23 48.390625 18.546875 47.265625 
Q 14.109375 46.140625 10.015625 43.890625 
L 10.015625 52.203125 
Q 14.9375 54.109375 19.578125 55.046875 
Q 24.21875 56 28.609375 56 
Q 40.484375 56 46.34375 49.84375 
Q 52.203125 43.703125 52.203125 31.203125 
z
" id="DejaVuSans-97"/>
     <path d="M 48.6875 27.296875 
Q 48.6875 37.203125 44.609375 42.84375 
Q 40.53125 48.484375 33.40625 48.484375 
Q 26.265625 48.484375 22.1875 42.84375 
Q 18.109375 37.203125 18.109375 27.296875 
Q 18.109375 17.390625 22.1875 11.75 
Q 26.265625 6.109375 33.40625 6.109375 
Q 40.53125 6.109375 44.609375 11.75 
Q 48.6875 17.390625 48.6875 27.296875 
z
M 18.109375 46.390625 
Q 20.953125 51.265625 25.265625 53.625 
Q 29.59375 56 35.59375 56 
Q 45.5625 56 51.78125 48.09375 
Q 58.015625 40.1875 58.015625 27.296875 
Q 58.015625 14.40625 51.78125 6.484375 
Q 45.5625 -1.421875 35.59375 -1.421875 
Q 29.59375 -1.421875 25.265625 0.953125 
Q 20.953125 3.328125 18.109375 8.203125 
L 18.109375 0 
L 9.078125 0 
L 9.078125 75.984375 
L 18.109375 75.984375 
z
" id="DejaVuSans-98"/>
     <path d="M 30.609375 48.390625 
Q 23.390625 48.390625 19.1875 42.75 
Q 14.984375 37.109375 14.984375 27.296875 
Q 14.984375 17.484375 19.15625 11.84375 
Q 23.34375 6.203125 30.609375 6.203125 
Q 37.796875 6.203125 41.984375 11.859375 
Q 46.1875 17.53125 46.1875 27.296875 
Q 46.1875 37.015625 41.984375 42.703125 
Q 37.796875 48.390625 30.609375 48.390625 
z
M 30.609375 56 
Q 42.328125 56 49.015625 48.375 
Q 55.71875 40.765625 55.71875 27.296875 
Q 55.71875 13.875 49.015625 6.21875 
Q 42.328125 -1.421875 30.609375 -1.421875 
Q 18.84375 -1.421875 12.171875 6.21875 
Q 5.515625 13.875 5.515625 27.296875 
Q 5.515625 40.765625 12.171875 48.375 
Q 18.84375 56 30.609375 56 
z
" id="DejaVuSans-111"/>
     <path d="M 41.109375 46.296875 
Q 39.59375 47.171875 37.8125 47.578125 
Q 36.03125 48 33.890625 48 
Q 26.265625 48 22.1875 43.046875 
Q 18.109375 38.09375 18.109375 28.8125 
L 18.109375 0 
L 9.078125 0 
L 9.078125 54.6875 
L 18.109375 54.6875 
L 18.109375 46.1875 
Q 20.953125 51.171875 25.484375 53.578125 
Q 30.03125 56 36.53125 56 
Q 37.453125 56 38.578125 55.875 
Q 39.703125 55.765625 41.0625 55.515625 
z
" id="DejaVuSans-114"/>
    </defs>
    <g transform="translate(76.140691 41.977265)scale(0.1 -0.1)">
     <use xlink:href="#DejaVuSans-76"/>
     <use x="55.712891" xlink:href="#DejaVuSans-97"/>
     <use x="116.992188" xlink:href="#DejaVuSans-98"/>
     <use x="180.46875" xlink:href="#DejaVuSans-111"/>
     <use x="241.650391" xlink:href="#DejaVuSans-114"/>
    </g>
   </g>
   <g id="text_4">
    <!-- 6% -->
    <defs>
     <path d="M 33.015625 40.375 
Q 26.375 40.375 22.484375 35.828125 
Q 18.609375 31.296875 18.609375 23.390625 
Q 18.609375 15.53125 22.484375 10.953125 
Q 26.375 6.390625 33.015625 6.390625 
Q 39.65625 6.390625 43.53125 10.953125 
Q 47.40625 15.53125 47.40625 23.390625 
Q 47.40625 31.296875 43.53125 35.828125 
Q 39.65625 40.375 33.015625 40.375 
z
M 52.59375 71.296875 
L 52.59375 62.3125 
Q 48.875 64.0625 45.09375 64.984375 
Q 41.3125 65.921875 37.59375 65.921875 
Q 27.828125 65.921875 22.671875 59.328125 
Q 17.53125 52.734375 16.796875 39.40625 
Q 19.671875 43.65625 24.015625 45.921875 
Q 28.375 48.1875 33.59375 48.1875 
Q 44.578125 48.1875 50.953125 41.515625 
Q 57.328125 34.859375 57.328125 23.390625 
Q 57.328125 12.15625 50.6875 5.359375 
Q 44.046875 -1.421875 33.015625 -1.421875 
Q 20.359375 -1.421875 13.671875 8.265625 
Q 6.984375 17.96875 6.984375 36.375 
Q 6.984375 53.65625 15.1875 63.9375 
Q 23.390625 74.21875 37.203125 74.21875 
Q 40.921875 74.21875 44.703125 73.484375 
Q 48.484375 72.75 52.59375 71.296875 
z
" id="DejaVuSans-54"/>
    </defs>
    <g transform="translate(117.66609 80.277939)scale(0.1 -0.1)">
     <use xlink:href="#DejaVuSans-54"/>
     <use x="63.623047" xlink:href="#DejaVuSans-37"/>
    </g>
   </g>
   <g id="text_5">
    <!-- Maintenance -->
    <defs>
     <path d="M 9.8125 72.90625 
L 24.515625 72.90625 
L 43.109375 23.296875 
L 61.8125 72.90625 
L 76.515625 72.90625 
L 76.515625 0 
L 66.890625 0 
L 66.890625 64.015625 
L 48.09375 14.015625 
L 38.1875 14.015625 
L 19.390625 64.015625 
L 19.390625 0 
L 9.8125 0 
z
" id="DejaVuSans-77"/>
     <path d="M 54.890625 33.015625 
L 54.890625 0 
L 45.90625 0 
L 45.90625 32.71875 
Q 45.90625 40.484375 42.875 44.328125 
Q 39.84375 48.1875 33.796875 48.1875 
Q 26.515625 48.1875 22.3125 43.546875 
Q 18.109375 38.921875 18.109375 30.90625 
L 18.109375 0 
L 9.078125 0 
L 9.078125 54.6875 
L 18.109375 54.6875 
L 18.109375 46.1875 
Q 21.34375 51.125 25.703125 53.5625 
Q 30.078125 56 35.796875 56 
Q 45.21875 56 50.046875 50.171875 
Q 54.890625 44.34375 54.890625 33.015625 
z
" id="DejaVuSans-110"/>
     <path d="M 48.78125 52.59375 
L 48.78125 44.1875 
Q 44.96875 46.296875 41.140625 47.34375 
Q 37.3125 48.390625 33.40625 48.390625 
Q 24.65625 48.390625 19.8125 42.84375 
Q 14.984375 37.3125 14.984375 27.296875 
Q 14.984375 17.28125 19.8125 11.734375 
Q 24.65625 6.203125 33.40625 6.203125 
Q 37.3125 6.203125 41.140625 7.25 
Q 44.96875 8.296875 48.78125 10.40625 
L 48.78125 2.09375 
Q 45.015625 0.34375 40.984375 -0.53125 
Q 36.96875 -1.421875 32.421875 -1.421875 
Q 20.0625 -1.421875 12.78125 6.34375 
Q 5.515625 14.109375 5.515625 27.296875 
Q 5.515625 40.671875 12.859375 48.328125 
Q 20.21875 56 33.015625 56 
Q 37.15625 56 41.109375 55.140625 
Q 45.0625 54.296875 48.78125 52.59375 
z
" id="DejaVuSans-99"/>
    </defs>
    <g transform="translate(7.2 73.74143)scale(0.1 -0.1)">
     <use xlink:href="#DejaVuSans-77"/>
     <use x="86.279297" xlink:href="#DejaVuSans-97"/>
     <use x="147.558594" xlink:href="#DejaVuSans-105"/>
     <use x="175.341797" xlink:href="#DejaVuSans-110"/>
     <use x="238.720703" xlink:href="#DejaVuSans-116"/>
     <use x="277.929688" xlink:href="#DejaVuSans-101"/>
     <use x="339.453125" xlink:href="#DejaVuSans-110"/>
     <use x="402.832031" xlink:href="#DejaVuSans-97"/>
     <use x="464.111328" xlink:href="#DejaVuSans-110"/>
     <use x="527.490234" xlink:href="#DejaVuSans-99"/>
     <use x="582.470703" xlink:href="#DejaVuSans-101"/>
    </g>
   </g>
   <g id="text_6">
    <!-- 10% -->
    <defs>
     <path d="M 12.40625 8.296875 
L 28.515625 8.296875 
L 28.515625 63.921875 
L 10.984375 60.40625 
L 10.984375 69.390625 
L 28.421875 72.90625 
L 38.28125 72.90625 
L 38.28125 8.296875 
L 54.390625 8.296875 
L 54.390625 0 
L 12.40625 0 
z
" id="DejaVuSans-49"/>
    </defs>
    <g transform="translate(98.075432 96.160022)scale(0.1 -0.1)">
     <use xlink:href="#DejaVuSans-49"/>
     <use x="63.623047" xlink:href="#DejaVuSans-48"/>
     <use x="127.246094" xlink:href="#DejaVuSans-37"/>
    </g>
   </g>
   <g id="text_7">
    <!-- Equipment -->
    <defs>
     <path d="M 9.8125 72.90625 
L 55.90625 72.90625 
L 55.90625 64.59375 
L 19.671875 64.59375 
L 19.671875 43.015625 
L 54.390625 43.015625 
L 54.390625 34.71875 
L 19.671875 34.71875 
L 19.671875 8.296875 
L 56.78125 8.296875 
L 56.78125 0 
L 9.8125 0 
z
" id="DejaVuSans-69"/>
     <path d="M 14.796875 27.296875 
Q 14.796875 17.390625 18.875 11.75 
Q 22.953125 6.109375 30.078125 6.109375 
Q 37.203125 6.109375 41.296875 11.75 
Q 45.40625 17.390625 45.40625 27.296875 
Q 45.40625 37.203125 41.296875 42.84375 
Q 37.203125 48.484375 30.078125 48.484375 
Q 22.953125 48.484375 18.875 42.84375 
Q 14.796875 37.203125 14.796875 27.296875 
z
M 45.40625 8.203125 
Q 42.578125 3.328125 38.25 0.953125 
Q 33.9375 -1.421875 27.875 -1.421875 
Q 17.96875 -1.421875 11.734375 6.484375 
Q 5.515625 14.40625 5.515625 27.296875 
Q 5.515625 40.1875 11.734375 48.09375 
Q 17.96875 56 27.875 56 
Q 33.9375 56 38.25 53.625 
Q 42.578125 51.265625 45.40625 46.390625 
L 45.40625 54.6875 
L 54.390625 54.6875 
L 54.390625 -20.796875 
L 45.40625 -20.796875 
z
" id="DejaVuSans-113"/>
     <path d="M 8.5 21.578125 
L 8.5 54.6875 
L 17.484375 54.6875 
L 17.484375 21.921875 
Q 17.484375 14.15625 20.5 10.265625 
Q 23.53125 6.390625 29.59375 6.390625 
Q 36.859375 6.390625 41.078125 11.03125 
Q 45.3125 15.671875 45.3125 23.6875 
L 45.3125 54.6875 
L 54.296875 54.6875 
L 54.296875 0 
L 45.3125 0 
L 45.3125 8.40625 
Q 42.046875 3.421875 37.71875 1 
Q 33.40625 -1.421875 27.6875 -1.421875 
Q 18.265625 -1.421875 13.375 4.4375 
Q 8.5 10.296875 8.5 21.578125 
z
M 31.109375 56 
z
" id="DejaVuSans-117"/>
     <path d="M 18.109375 8.203125 
L 18.109375 -20.796875 
L 9.078125 -20.796875 
L 9.078125 54.6875 
L 18.109375 54.6875 
L 18.109375 46.390625 
Q 20.953125 51.265625 25.265625 53.625 
Q 29.59375 56 35.59375 56 
Q 45.5625 56 51.78125 48.09375 
Q 58.015625 40.1875 58.015625 27.296875 
Q 58.015625 14.40625 51.78125 6.484375 
Q 45.5625 -1.421875 35.59375 -1.421875 
Q 29.59375 -1.421875 25.265625 0.953125 
Q 20.953125 3.328125 18.109375 8.203125 
z
M 48.6875 27.296875 
Q 48.6875 37.203125 44.609375 42.84375 
Q 40.53125 48.484375 33.40625 48.484375 
Q 26.265625 48.484375 22.1875 42.84375 
Q 18.109375 37.203125 18.109375 27.296875 
Q 18.109375 17.390625 22.1875 11.75 
Q 26.265625 6.109375 33.40625 6.109375 
Q 40.53125 6.109375 44.609375 11.75 
Q 48.6875 17.390625 48.6875 27.296875 
z
" id="DejaVuSans-112"/>
     <path d="M 52 44.1875 
Q 55.375 50.25 60.0625 53.125 
Q 64.75 56 71.09375 56 
Q 79.640625 56 84.28125 50.015625 
Q 88.921875 44.046875 88.921875 33.015625 
L 88.921875 0 
L 79.890625 0 
L 79.890625 32.71875 
Q 79.890625 40.578125 77.09375 44.375 
Q 74.3125 48.1875 68.609375 48.1875 
Q 61.625 48.1875 57.5625 43.546875 
Q 53.515625 38.921875 53.515625 30.90625 
L 53.515625 0 
L 44.484375 0 
L 44.484375 32.71875 
Q 44.484375 40.625 41.703125 44.40625 
Q 38.921875 48.1875 33.109375 48.1875 
Q 26.21875 48.1875 22.15625 43.53125 
Q 18.109375 38.875 18.109375 30.90625 
L 18.109375 0 
L 9.078125 0 
L 9.078125 54.6875 
L 18.109375 54.6875 
L 18.109375 46.1875 
Q 21.1875 51.21875 25.484375 53.609375 
Q 29.78125 56 35.6875 56 
Q 41.65625 56 45.828125 52.96875 
Q 50 49.953125 52 44.1875 
z
" id="DejaVuSans-109"/>
    </defs>
    <g transform="translate(28.537675 178.340879)scale(0.1 -0.1)">
     <use xlink:href="#DejaVuSans-69"/>
     <use x="63.183594" xlink:href="#DejaVuSans-113"/>
     <use x="126.660156" xlink:href="#DejaVuSans-117"/>
     <use x="190.039062" xlink:href="#DejaVuSans-105"/>
     <use x="217.822266" xlink:href="#DejaVuSans-112"/>
     <use x="281.298828" xlink:href="#DejaVuSans-109"/>
     <use x="378.710938" xlink:href="#DejaVuSans-101"/>
     <use x="440.234375" xlink:href="#DejaVuSans-110"/>
     <use x="503.613281" xlink:href="#DejaVuSans-116"/>
    </g>
   </g>
   <g id="text_8">
    <!-- 31% -->
    <g transform="translate(103.685676 148.459746)scale(0.1 -0.1)">
     <use xlink:href="#DejaVuSans-51"/>
     <use x="63.623047" xlink:href="#DejaVuSans-49"/>
     <use x="127.246094" xlink:href="#DejaVuSans-37"/>
    </g>
   </g>
   <g id="text_9">
    <!-- Taxes -->
    <defs>
     <path d="M -0.296875 72.90625 
L 61.375 72.90625 
L 61.375 64.59375 
L 35.5 64.59375 
L 35.5 0 
L 25.59375 0 
L 25.59375 64.59375 
L -0.296875 64.59375 
z
" id="DejaVuSans-84"/>
     <path d="M 54.890625 54.6875 
L 35.109375 28.078125 
L 55.90625 0 
L 45.3125 0 
L 29.390625 21.484375 
L 13.484375 0 
L 2.875 0 
L 24.125 28.609375 
L 4.6875 54.6875 
L 15.28125 54.6875 
L 29.78125 35.203125 
L 44.28125 54.6875 
z
" id="DejaVuSans-120"/>
    </defs>
    <g transform="translate(176.582356 200.881011)scale(0.1 -0.1)">
     <use xlink:href="#DejaVuSans-84"/>
     <use x="60.833984" xlink:href="#DejaVuSans-97"/>
     <use x="122.113281" xlink:href="#DejaVuSans-120"/>
     <use x="181.246094" xlink:href="#DejaVuSans-101"/>
     <use x="242.769531" xlink:href="#DejaVuSans-115"/>
    </g>
   </g>
   <g id="text_10">
    <!-- 6% -->
    <g transform="translate(153.747861 159.729812)scale(0.1 -0.1)">
     <use xlink:href="#DejaVuSans-54"/>
     <use x="63.623047" xlink:href="#DejaVuSans-37"/>
    </g>
   </g>
   <g id="text_11">
    <!-- Other -->
    <defs>
     <path d="M 39.40625 66.21875 
Q 28.65625 66.21875 22.328125 58.203125 
Q 16.015625 50.203125 16.015625 36.375 
Q 16.015625 22.609375 22.328125 14.59375 
Q 28.65625 6.59375 39.40625 6.59375 
Q 50.140625 6.59375 56.421875 14.59375 
Q 62.703125 22.609375 62.703125 36.375 
Q 62.703125 50.203125 56.421875 58.203125 
Q 50.140625 66.21875 39.40625 66.21875 
z
M 39.40625 74.21875 
Q 54.734375 74.21875 63.90625 63.9375 
Q 73.09375 53.65625 73.09375 36.375 
Q 73.09375 19.140625 63.90625 8.859375 
Q 54.734375 -1.421875 39.40625 -1.421875 
Q 24.03125 -1.421875 14.8125 8.828125 
Q 5.609375 19.09375 5.609375 36.375 
Q 5.609375 53.65625 14.8125 63.9375 
Q 24.03125 74.21875 39.40625 74.21875 
z
" id="DejaVuSans-79"/>
     <path d="M 54.890625 33.015625 
L 54.890625 0 
L 45.90625 0 
L 45.90625 32.71875 
Q 45.90625 40.484375 42.875 44.328125 
Q 39.84375 48.1875 33.796875 48.1875 
Q 26.515625 48.1875 22.3125 43.546875 
Q 18.109375 38.921875 18.109375 30.90625 
L 18.109375 0 
L 9.078125 0 
L 9.078125 75.984375 
L 18.109375 75.984375 
L 18.109375 46.1875 
Q 21.34375 51.125 25.703125 53.5625 
Q 30.078125 56 35.796875 56 
Q 45.21875 56 50.046875 50.171875 
Q 54.890625 44.34375 54.890625 33.015625 
z
" id="DejaVuSans-104"/>
    </defs>
    <g transform="translate(218.25498 169.105616)scale(0.1 -0.1)">
     <use xlink:href="#DejaVuSans-79"/>
     <use x="78.710938" xlink:href="#DejaVuSans-116"/>
     <use x="117.919922" xlink:href="#DejaVuSans-104"/>
     <use x="181.298828" xlink:href="#DejaVuSans-101"/>
     <use x="242.822266" xlink:href="#DejaVuSans-114"/>
    </g>
   </g>
   <g id="text_12">
    <!-- 13% -->
    <g transform="translate(171.402922 143.842115)scale(0.1 -0.1)">
     <use xlink:href="#DejaVuSans-49"/>
     <use x="63.623047" xlink:href="#DejaVuSans-51"/>
     <use x="127.246094" xlink:href="#DejaVuSans-37"/>
    </g>
   </g>
   <g id="text_13">
    <!-- Administration -->
    <defs>
     <path d="M 34.1875 63.1875 
L 20.796875 26.90625 
L 47.609375 26.90625 
z
M 28.609375 72.90625 
L 39.796875 72.90625 
L 67.578125 0 
L 57.328125 0 
L 50.6875 18.703125 
L 17.828125 18.703125 
L 11.1875 0 
L 0.78125 0 
z
" id="DejaVuSans-65"/>
     <path d="M 45.40625 46.390625 
L 45.40625 75.984375 
L 54.390625 75.984375 
L 54.390625 0 
L 45.40625 0 
L 45.40625 8.203125 
Q 42.578125 3.328125 38.25 0.953125 
Q 33.9375 -1.421875 27.875 -1.421875 
Q 17.96875 -1.421875 11.734375 6.484375 
Q 5.515625 14.40625 5.515625 27.296875 
Q 5.515625 40.1875 11.734375 48.09375 
Q 17.96875 56 27.875 56 
Q 33.9375 56 38.25 53.625 
Q 42.578125 51.265625 45.40625 46.390625 
z
M 14.796875 27.296875 
Q 14.796875 17.390625 18.875 11.75 
Q 22.953125 6.109375 30.078125 6.109375 
Q 37.203125 6.109375 41.296875 11.75 
Q 45.40625 17.390625 45.40625 27.296875 
Q 45.40625 37.203125 41.296875 42.84375 
Q 37.203125 48.484375 30.078125 48.484375 
Q 22.953125 48.484375 18.875 42.84375 
Q 14.796875 37.203125 14.796875 27.296875 
z
" id="DejaVuSans-100"/>
    </defs>
    <g transform="translate(233.828317 127.752551)scale(0.1 -0.1)">
     <use xlink:href="#DejaVuSans-65"/>
     <use x="68.392578" xlink:href="#DejaVuSans-100"/>
     <use x="131.869141" xlink:href="#DejaVuSans-109"/>
     <use x="229.28125" xlink:href="#DejaVuSans-105"/>
     <use x="257.064453" xlink:href="#DejaVuSans-110"/>
     <use x="320.443359" xlink:href="#DejaVuSans-105"/>
     <use x="348.226562" xlink:href="#DejaVuSans-115"/>
     <use x="400.326172" xlink:href="#DejaVuSans-116"/>
     <use x="439.535156" xlink:href="#DejaVuSans-114"/>
     <use x="480.648438" xlink:href="#DejaVuSans-97"/>
     <use x="541.927734" xlink:href="#DejaVuSans-116"/>
     <use x="581.136719" xlink:href="#DejaVuSans-105"/>
     <use x="608.919922" xlink:href="#DejaVuSans-111"/>
     <use x="670.101562" xlink:href="#DejaVuSans-110"/>
    </g>
   </g>
   <g id="text_14">
    <!-- 3% -->
    <g transform="translate(182.370841 123.165582)scale(0.1 -0.1)">
     <use xlink:href="#DejaVuSans-51"/>
     <use x="63.623047" xlink:href="#DejaVuSans-37"/>
    </g>
   </g>
   <g id="text_15">
    <!-- Food waste -->
    <defs>
     <path d="M 9.1875 72.90625 
L 59.90625 72.90625 
L 59.90625 58.6875 
L 27.984375 58.6875 
L 27.984375 45.125 
L 58.015625 45.125 
L 58.015625 30.90625 
L 27.984375 30.90625 
L 27.984375 0 
L 9.1875 0 
z
" id="DejaVuSans-Bold-70"/>
     <path d="M 34.421875 43.5 
Q 28.609375 43.5 25.5625 39.328125 
Q 22.515625 35.15625 22.515625 27.296875 
Q 22.515625 19.4375 25.5625 15.25 
Q 28.609375 11.078125 34.421875 11.078125 
Q 40.140625 11.078125 43.15625 15.25 
Q 46.1875 19.4375 46.1875 27.296875 
Q 46.1875 35.15625 43.15625 39.328125 
Q 40.140625 43.5 34.421875 43.5 
z
M 34.421875 56 
Q 48.53125 56 56.46875 48.375 
Q 64.40625 40.765625 64.40625 27.296875 
Q 64.40625 13.8125 56.46875 6.1875 
Q 48.53125 -1.421875 34.421875 -1.421875 
Q 20.265625 -1.421875 12.28125 6.1875 
Q 4.296875 13.8125 4.296875 27.296875 
Q 4.296875 40.765625 12.28125 48.375 
Q 20.265625 56 34.421875 56 
z
" id="DejaVuSans-Bold-111"/>
     <path d="M 45.609375 46.6875 
L 45.609375 75.984375 
L 63.1875 75.984375 
L 63.1875 0 
L 45.609375 0 
L 45.609375 7.90625 
Q 42 3.078125 37.640625 0.828125 
Q 33.296875 -1.421875 27.59375 -1.421875 
Q 17.484375 -1.421875 10.984375 6.609375 
Q 4.5 14.65625 4.5 27.296875 
Q 4.5 39.9375 10.984375 47.96875 
Q 17.484375 56 27.59375 56 
Q 33.25 56 37.625 53.734375 
Q 42 51.46875 45.609375 46.6875 
z
M 34.078125 11.28125 
Q 39.703125 11.28125 42.65625 15.375 
Q 45.609375 19.484375 45.609375 27.296875 
Q 45.609375 35.109375 42.65625 39.203125 
Q 39.703125 43.3125 34.078125 43.3125 
Q 28.515625 43.3125 25.5625 39.203125 
Q 22.609375 35.109375 22.609375 27.296875 
Q 22.609375 19.484375 25.5625 15.375 
Q 28.515625 11.28125 34.078125 11.28125 
z
" id="DejaVuSans-Bold-100"/>
     <path id="DejaVuSans-Bold-32"/>
     <path d="M 3.515625 54.6875 
L 20.515625 54.6875 
L 29.6875 17 
L 38.921875 54.6875 
L 53.515625 54.6875 
L 62.703125 17.390625 
L 71.921875 54.6875 
L 88.921875 54.6875 
L 74.515625 0 
L 55.421875 0 
L 46.1875 37.59375 
L 37.015625 0 
L 17.921875 0 
z
" id="DejaVuSans-Bold-119"/>
     <path d="M 32.90625 24.609375 
Q 27.4375 24.609375 24.671875 22.75 
Q 21.921875 20.90625 21.921875 17.28125 
Q 21.921875 13.96875 24.140625 12.078125 
Q 26.375 10.203125 30.328125 10.203125 
Q 35.25 10.203125 38.625 13.734375 
Q 42 17.28125 42 22.609375 
L 42 24.609375 
z
M 59.625 31.203125 
L 59.625 0 
L 42 0 
L 42 8.109375 
Q 38.484375 3.125 34.078125 0.84375 
Q 29.6875 -1.421875 23.390625 -1.421875 
Q 14.890625 -1.421875 9.59375 3.53125 
Q 4.296875 8.5 4.296875 16.40625 
Q 4.296875 26.03125 10.90625 30.515625 
Q 17.53125 35.015625 31.6875 35.015625 
L 42 35.015625 
L 42 36.375 
Q 42 40.53125 38.71875 42.453125 
Q 35.453125 44.390625 28.515625 44.390625 
Q 22.90625 44.390625 18.0625 43.265625 
Q 13.234375 42.140625 9.078125 39.890625 
L 9.078125 53.21875 
Q 14.703125 54.59375 20.359375 55.296875 
Q 26.03125 56 31.6875 56 
Q 46.484375 56 53.046875 50.171875 
Q 59.625 44.34375 59.625 31.203125 
z
" id="DejaVuSans-Bold-97"/>
     <path d="M 51.125 52.984375 
L 51.125 39.703125 
Q 45.515625 42.046875 40.28125 43.21875 
Q 35.0625 44.390625 30.421875 44.390625 
Q 25.4375 44.390625 23.015625 43.140625 
Q 20.609375 41.890625 20.609375 39.3125 
Q 20.609375 37.203125 22.4375 36.078125 
Q 24.265625 34.96875 29 34.421875 
L 32.078125 33.984375 
Q 45.515625 32.28125 50.140625 28.375 
Q 54.78125 24.46875 54.78125 16.109375 
Q 54.78125 7.375 48.328125 2.96875 
Q 41.890625 -1.421875 29.109375 -1.421875 
Q 23.6875 -1.421875 17.890625 -0.5625 
Q 12.109375 0.296875 6 2 
L 6 15.28125 
Q 11.234375 12.75 16.71875 11.46875 
Q 22.21875 10.203125 27.875 10.203125 
Q 33.015625 10.203125 35.59375 11.609375 
Q 38.1875 13.03125 38.1875 15.828125 
Q 38.1875 18.171875 36.40625 19.3125 
Q 34.625 20.453125 29.296875 21.09375 
L 26.21875 21.484375 
Q 14.546875 22.953125 9.859375 26.90625 
Q 5.171875 30.859375 5.171875 38.921875 
Q 5.171875 47.609375 11.125 51.796875 
Q 17.09375 56 29.390625 56 
Q 34.234375 56 39.546875 55.265625 
Q 44.875 54.546875 51.125 52.984375 
z
" id="DejaVuSans-Bold-115"/>
     <path d="M 27.484375 70.21875 
L 27.484375 54.6875 
L 45.515625 54.6875 
L 45.515625 42.1875 
L 27.484375 42.1875 
L 27.484375 19 
Q 27.484375 15.1875 29 13.84375 
Q 30.515625 12.5 35.015625 12.5 
L 44 12.5 
L 44 0 
L 29 0 
Q 18.65625 0 14.328125 4.3125 
Q 10.015625 8.640625 10.015625 19 
L 10.015625 42.1875 
L 1.3125 42.1875 
L 1.3125 54.6875 
L 10.015625 54.6875 
L 10.015625 70.21875 
z
" id="DejaVuSans-Bold-116"/>
     <path d="M 62.984375 27.484375 
L 62.984375 22.515625 
L 22.125 22.515625 
Q 22.75 16.359375 26.5625 13.28125 
Q 30.375 10.203125 37.203125 10.203125 
Q 42.71875 10.203125 48.5 11.84375 
Q 54.296875 13.484375 60.40625 16.796875 
L 60.40625 3.328125 
Q 54.203125 0.984375 48 -0.21875 
Q 41.796875 -1.421875 35.59375 -1.421875 
Q 20.75 -1.421875 12.515625 6.125 
Q 4.296875 13.671875 4.296875 27.296875 
Q 4.296875 40.671875 12.375 48.328125 
Q 20.453125 56 34.625 56 
Q 47.515625 56 55.25 48.234375 
Q 62.984375 40.484375 62.984375 27.484375 
z
M 45.015625 33.296875 
Q 45.015625 38.28125 42.109375 41.328125 
Q 39.203125 44.390625 34.515625 44.390625 
Q 29.4375 44.390625 26.265625 41.53125 
Q 23.09375 38.671875 22.3125 33.296875 
z
" id="DejaVuSans-Bold-101"/>
    </defs>
    <g transform="translate(107.953677 16.318125)scale(0.12 -0.12)">
     <use xlink:href="#DejaVuSans-Bold-70"/>
     <use x="68.248047" xlink:href="#DejaVuSans-Bold-111"/>
     <use x="136.949219" xlink:href="#DejaVuSans-Bold-111"/>
     <use x="205.650391" xlink:href="#DejaVuSans-Bold-100"/>
     <use x="277.232422" xlink:href="#DejaVuSans-Bold-32"/>
     <use x="312.046875" xlink:href="#DejaVuSans-Bold-119"/>
     <use x="404.429688" xlink:href="#DejaVuSans-Bold-97"/>
     <use x="471.910156" xlink:href="#DejaVuSans-Bold-115"/>
     <use x="531.431641" xlink:href="#DejaVuSans-Bold-116"/>
     <use x="579.234375" xlink:href="#DejaVuSans-Bold-101"/>
    </g>
   </g>
  </g>
  <g id="axes_2">
   <g id="patch_10">
    <path d="M 513.205181 115.819238 
C 513.205181 103.634511 510.406561 91.611016 505.025786 80.678733 
C 499.64501 69.746449 491.824479 60.194696 482.169085 52.76227 
C 472.513692 45.329845 461.278963 40.213443 449.333869 37.808804 
C 437.388774 35.404164 425.049437 35.774924 413.270266 38.892406 
L 433.629766 115.819238 
L 513.205181 115.819238 
z
" style="fill:#3d5941;"/>
   </g>
   <g id="patch_11">
    <path d="M 413.270266 38.892406 
C 408.022116 40.281385 402.929854 42.203788 398.073107 44.629557 
C 393.21636 47.055325 388.620575 49.971749 384.357615 53.333225 
L 433.629766 115.819238 
L 413.270266 38.892406 
z
" style="fill:#778868;"/>
   </g>
   <g id="patch_12">
    <path d="M 384.357615 53.333225 
C 377.507597 58.734676 371.592162 65.22595 366.848433 72.546841 
C 362.104704 79.867733 358.596924 87.919099 356.465703 96.378195 
L 433.629766 115.819238 
L 384.357615 53.333225 
z
" style="fill:#b5b991;"/>
   </g>
   <g id="patch_13">
    <path d="M 356.465703 96.378195 
C 353.291992 108.975074 353.250659 122.159557 356.345326 134.776087 
C 359.439994 147.392616 365.57753 159.061505 374.220008 168.760029 
C 382.862486 178.458553 393.749815 185.89484 405.927772 190.417135 
C 418.105729 194.93943 431.207825 196.411637 444.085722 194.704723 
L 433.629766 115.819238 
L 356.465703 96.378195 
z
" style="fill:#f6edbd;"/>
   </g>
   <g id="patch_14">
    <path d="M 444.085722 194.704723 
C 449.467497 193.99139 454.762175 192.729188 459.886964 190.937853 
C 465.011753 189.146518 469.939802 186.835436 474.594052 184.040745 
L 433.629766 115.819238 
L 444.085722 194.704723 
z
" style="fill:#edbb8a;"/>
   </g>
   <g id="patch_15">
    <path d="M 474.594052 184.040745 
C 483.926746 178.436835 492.011016 170.977006 498.345488 162.123903 
C 504.679961 153.2708 509.13092 143.211306 511.422326 132.569293 
L 433.629766 115.819238 
L 474.594052 184.040745 
z
" style="fill:#de8a5a;"/>
   </g>
   <g id="patch_16">
    <path d="M 511.422326 132.569293 
C 512.014521 129.818954 512.460442 127.039143 512.758212 124.241573 
C 513.055982 121.444004 513.205181 118.63261 513.205181 115.819238 
L 433.629766 115.819238 
L 511.422326 132.569293 
z
" style="fill:#ca562c;"/>
   </g>
   <g id="patch_17">
    <path clip-path="url(#p11172dcf17)" d="M 433.629766 171.522029 
C 448.402319 171.522029 462.571815 165.652831 473.017587 155.207059 
C 483.463359 144.761287 489.332557 130.591791 489.332557 115.819238 
C 489.332557 101.046685 483.463359 86.877189 473.017587 76.431417 
C 462.571815 65.985645 448.402319 60.116447 433.629766 60.116447 
C 418.857213 60.116447 404.687717 65.985645 394.241945 76.431417 
C 383.796173 86.877189 377.926975 101.046685 377.926975 115.819238 
C 377.926975 130.591791 383.796173 144.761287 394.241945 155.207059 
C 404.687717 165.652831 418.857213 171.522029 433.629766 171.522029 
z
" style="fill:#ffffff;stroke:#ffffff;stroke-linejoin:miter;"/>
   </g>
   <g id="matplotlib.axis_3"/>
   <g id="matplotlib.axis_4"/>
   <g id="text_16">
    <!-- Utilities -->
    <g transform="translate(487.023017 49.215948)scale(0.1 -0.1)">
     <use xlink:href="#DejaVuSans-85"/>
     <use x="73.193359" xlink:href="#DejaVuSans-116"/>
     <use x="112.402344" xlink:href="#DejaVuSans-105"/>
     <use x="140.185547" xlink:href="#DejaVuSans-108"/>
     <use x="167.96875" xlink:href="#DejaVuSans-105"/>
     <use x="195.751953" xlink:href="#DejaVuSans-116"/>
     <use x="234.960938" xlink:href="#DejaVuSans-105"/>
     <use x="262.744141" xlink:href="#DejaVuSans-101"/>
     <use x="324.267578" xlink:href="#DejaVuSans-115"/>
    </g>
   </g>
   <g id="text_17">
    <!-- 29% -->
    <defs>
     <path d="M 19.1875 8.296875 
L 53.609375 8.296875 
L 53.609375 0 
L 7.328125 0 
L 7.328125 8.296875 
Q 12.9375 14.109375 22.625 23.890625 
Q 32.328125 33.6875 34.8125 36.53125 
Q 39.546875 41.84375 41.421875 45.53125 
Q 43.3125 49.21875 43.3125 52.78125 
Q 43.3125 58.59375 39.234375 62.25 
Q 35.15625 65.921875 28.609375 65.921875 
Q 23.96875 65.921875 18.8125 64.3125 
Q 13.671875 62.703125 7.8125 59.421875 
L 7.8125 69.390625 
Q 13.765625 71.78125 18.9375 73 
Q 24.125 74.21875 28.421875 74.21875 
Q 39.75 74.21875 46.484375 68.546875 
Q 53.21875 62.890625 53.21875 53.421875 
Q 53.21875 48.921875 51.53125 44.890625 
Q 49.859375 40.875 45.40625 35.40625 
Q 44.1875 33.984375 37.640625 27.21875 
Q 31.109375 20.453125 19.1875 8.296875 
z
" id="DejaVuSans-50"/>
     <path d="M 10.984375 1.515625 
L 10.984375 10.5 
Q 14.703125 8.734375 18.5 7.8125 
Q 22.3125 6.890625 25.984375 6.890625 
Q 35.75 6.890625 40.890625 13.453125 
Q 46.046875 20.015625 46.78125 33.40625 
Q 43.953125 29.203125 39.59375 26.953125 
Q 35.25 24.703125 29.984375 24.703125 
Q 19.046875 24.703125 12.671875 31.3125 
Q 6.296875 37.9375 6.296875 49.421875 
Q 6.296875 60.640625 12.9375 67.421875 
Q 19.578125 74.21875 30.609375 74.21875 
Q 43.265625 74.21875 49.921875 64.515625 
Q 56.59375 54.828125 56.59375 36.375 
Q 56.59375 19.140625 48.40625 8.859375 
Q 40.234375 -1.421875 26.421875 -1.421875 
Q 22.703125 -1.421875 18.890625 -0.6875 
Q 15.09375 0.046875 10.984375 1.515625 
z
M 30.609375 32.421875 
Q 37.25 32.421875 41.125 36.953125 
Q 45.015625 41.5 45.015625 49.421875 
Q 45.015625 57.28125 41.125 61.84375 
Q 37.25 66.40625 30.609375 66.40625 
Q 23.96875 66.40625 20.09375 61.84375 
Q 16.21875 57.28125 16.21875 49.421875 
Q 16.21875 41.5 20.09375 36.953125 
Q 23.96875 32.421875 30.609375 32.421875 
z
" id="DejaVuSans-57"/>
    </defs>
    <g transform="translate(449.21311 83.897281)scale(0.1 -0.1)">
     <use xlink:href="#DejaVuSans-50"/>
     <use x="63.623047" xlink:href="#DejaVuSans-57"/>
     <use x="127.246094" xlink:href="#DejaVuSans-37"/>
    </g>
   </g>
   <g id="text_18">
    <!-- Labor -->
    <g transform="translate(366.239316 40.269964)scale(0.1 -0.1)">
     <use xlink:href="#DejaVuSans-76"/>
     <use x="55.712891" xlink:href="#DejaVuSans-97"/>
     <use x="116.992188" xlink:href="#DejaVuSans-98"/>
     <use x="180.46875" xlink:href="#DejaVuSans-111"/>
     <use x="241.650391" xlink:href="#DejaVuSans-114"/>
    </g>
   </g>
   <g id="text_19">
    <!-- 7% -->
    <defs>
     <path d="M 8.203125 72.90625 
L 55.078125 72.90625 
L 55.078125 68.703125 
L 28.609375 0 
L 18.3125 0 
L 43.21875 64.59375 
L 8.203125 64.59375 
z
" id="DejaVuSans-55"/>
    </defs>
    <g transform="translate(406.141572 79.424288)scale(0.1 -0.1)">
     <use xlink:href="#DejaVuSans-55"/>
     <use x="63.623047" xlink:href="#DejaVuSans-37"/>
    </g>
   </g>
   <g id="text_20">
    <!-- Maintenance -->
    <g transform="translate(295.7703 70.978977)scale(0.1 -0.1)">
     <use xlink:href="#DejaVuSans-77"/>
     <use x="86.279297" xlink:href="#DejaVuSans-97"/>
     <use x="147.558594" xlink:href="#DejaVuSans-105"/>
     <use x="175.341797" xlink:href="#DejaVuSans-110"/>
     <use x="238.720703" xlink:href="#DejaVuSans-116"/>
     <use x="277.929688" xlink:href="#DejaVuSans-101"/>
     <use x="339.453125" xlink:href="#DejaVuSans-110"/>
     <use x="402.832031" xlink:href="#DejaVuSans-97"/>
     <use x="464.111328" xlink:href="#DejaVuSans-110"/>
     <use x="527.490234" xlink:href="#DejaVuSans-99"/>
     <use x="582.470703" xlink:href="#DejaVuSans-101"/>
    </g>
   </g>
   <g id="text_21">
    <!-- 10% -->
    <g transform="translate(385.786752 94.778795)scale(0.1 -0.1)">
     <use xlink:href="#DejaVuSans-49"/>
     <use x="63.623047" xlink:href="#DejaVuSans-48"/>
     <use x="127.246094" xlink:href="#DejaVuSans-37"/>
    </g>
   </g>
   <g id="text_22">
    <!-- Equipment -->
    <g transform="translate(313.996219 176.813483)scale(0.1 -0.1)">
     <use xlink:href="#DejaVuSans-69"/>
     <use x="63.183594" xlink:href="#DejaVuSans-113"/>
     <use x="126.660156" xlink:href="#DejaVuSans-117"/>
     <use x="190.039062" xlink:href="#DejaVuSans-105"/>
     <use x="217.822266" xlink:href="#DejaVuSans-112"/>
     <use x="281.298828" xlink:href="#DejaVuSans-109"/>
     <use x="378.710938" xlink:href="#DejaVuSans-101"/>
     <use x="440.234375" xlink:href="#DejaVuSans-110"/>
     <use x="503.613281" xlink:href="#DejaVuSans-116"/>
    </g>
   </g>
   <g id="text_23">
    <!-- 31% -->
    <g transform="translate(389.841118 147.696048)scale(0.1 -0.1)">
     <use xlink:href="#DejaVuSans-51"/>
     <use x="63.623047" xlink:href="#DejaVuSans-49"/>
     <use x="127.246094" xlink:href="#DejaVuSans-37"/>
    </g>
   </g>
   <g id="text_24">
    <!-- Taxes -->
    <g transform="translate(462.512684 201.209089)scale(0.1 -0.1)">
     <use xlink:href="#DejaVuSans-84"/>
     <use x="60.833984" xlink:href="#DejaVuSans-97"/>
     <use x="122.113281" xlink:href="#DejaVuSans-120"/>
     <use x="181.246094" xlink:href="#DejaVuSans-101"/>
     <use x="242.769531" xlink:href="#DejaVuSans-115"/>
    </g>
   </g>
   <g id="text_25">
    <!-- 7% -->
    <g transform="translate(440.139194 159.893851)scale(0.1 -0.1)">
     <use xlink:href="#DejaVuSans-55"/>
     <use x="63.623047" xlink:href="#DejaVuSans-37"/>
    </g>
   </g>
   <g id="text_26">
    <!-- Other -->
    <g transform="translate(504.81706 169.513745)scale(0.1 -0.1)">
     <use xlink:href="#DejaVuSans-79"/>
     <use x="78.710938" xlink:href="#DejaVuSans-116"/>
     <use x="117.919922" xlink:href="#DejaVuSans-104"/>
     <use x="181.298828" xlink:href="#DejaVuSans-101"/>
     <use x="242.822266" xlink:href="#DejaVuSans-114"/>
    </g>
   </g>
   <g id="text_27">
    <!-- 13% -->
    <g transform="translate(458.110132 144.046179)scale(0.1 -0.1)">
     <use xlink:href="#DejaVuSans-49"/>
     <use x="63.623047" xlink:href="#DejaVuSans-51"/>
     <use x="127.246094" xlink:href="#DejaVuSans-37"/>
    </g>
   </g>
   <g id="text_28">
    <!-- Administration -->
    <g transform="translate(520.671057 127.843182)scale(0.1 -0.1)">
     <use xlink:href="#DejaVuSans-65"/>
     <use x="68.392578" xlink:href="#DejaVuSans-100"/>
     <use x="131.869141" xlink:href="#DejaVuSans-109"/>
     <use x="229.28125" xlink:href="#DejaVuSans-105"/>
     <use x="257.064453" xlink:href="#DejaVuSans-110"/>
     <use x="320.443359" xlink:href="#DejaVuSans-105"/>
     <use x="348.226562" xlink:href="#DejaVuSans-115"/>
     <use x="400.326172" xlink:href="#DejaVuSans-116"/>
     <use x="439.535156" xlink:href="#DejaVuSans-114"/>
     <use x="480.648438" xlink:href="#DejaVuSans-97"/>
     <use x="541.927734" xlink:href="#DejaVuSans-116"/>
     <use x="581.136719" xlink:href="#DejaVuSans-105"/>
     <use x="608.919922" xlink:href="#DejaVuSans-111"/>
     <use x="670.101562" xlink:href="#DejaVuSans-110"/>
    </g>
   </g>
   <g id="text_29">
    <!-- 3% -->
    <g transform="translate(469.21838 123.210898)scale(0.1 -0.1)">
     <use xlink:href="#DejaVuSans-51"/>
     <use x="63.623047" xlink:href="#DejaVuSans-37"/>
    </g>
   </g>
   <g id="text_30">
    <!-- Cattle manure -->
    <defs>
     <path d="M 67 4 
Q 61.8125 1.3125 56.203125 -0.046875 
Q 50.59375 -1.421875 44.484375 -1.421875 
Q 26.265625 -1.421875 15.625 8.765625 
Q 4.984375 18.953125 4.984375 36.375 
Q 4.984375 53.859375 15.625 64.03125 
Q 26.265625 74.21875 44.484375 74.21875 
Q 50.59375 74.21875 56.203125 72.84375 
Q 61.8125 71.484375 67 68.796875 
L 67 53.71875 
Q 61.765625 57.28125 56.6875 58.9375 
Q 51.609375 60.59375 46 60.59375 
Q 35.9375 60.59375 30.171875 54.140625 
Q 24.421875 47.703125 24.421875 36.375 
Q 24.421875 25.09375 30.171875 18.640625 
Q 35.9375 12.203125 46 12.203125 
Q 51.609375 12.203125 56.6875 13.859375 
Q 61.765625 15.53125 67 19.09375 
z
" id="DejaVuSans-Bold-67"/>
     <path d="M 8.40625 75.984375 
L 25.875 75.984375 
L 25.875 0 
L 8.40625 0 
z
" id="DejaVuSans-Bold-108"/>
     <path d="M 59.078125 45.609375 
Q 62.40625 50.6875 66.96875 53.34375 
Q 71.53125 56 77 56 
Q 86.421875 56 91.359375 50.1875 
Q 96.296875 44.390625 96.296875 33.296875 
L 96.296875 0 
L 78.71875 0 
L 78.71875 28.515625 
Q 78.765625 29.15625 78.78125 29.828125 
Q 78.8125 30.515625 78.8125 31.78125 
Q 78.8125 37.59375 77.09375 40.203125 
Q 75.390625 42.828125 71.578125 42.828125 
Q 66.609375 42.828125 63.890625 38.71875 
Q 61.1875 34.625 61.078125 26.859375 
L 61.078125 0 
L 43.5 0 
L 43.5 28.515625 
Q 43.5 37.59375 41.9375 40.203125 
Q 40.375 42.828125 36.375 42.828125 
Q 31.34375 42.828125 28.609375 38.703125 
Q 25.875 34.578125 25.875 26.90625 
L 25.875 0 
L 8.296875 0 
L 8.296875 54.6875 
L 25.875 54.6875 
L 25.875 46.6875 
Q 29.109375 51.3125 33.28125 53.65625 
Q 37.453125 56 42.484375 56 
Q 48.140625 56 52.484375 53.265625 
Q 56.84375 50.53125 59.078125 45.609375 
z
" id="DejaVuSans-Bold-109"/>
     <path d="M 63.375 33.296875 
L 63.375 0 
L 45.796875 0 
L 45.796875 5.421875 
L 45.796875 25.484375 
Q 45.796875 32.5625 45.484375 35.25 
Q 45.171875 37.9375 44.390625 39.203125 
Q 43.359375 40.921875 41.59375 41.875 
Q 39.84375 42.828125 37.59375 42.828125 
Q 32.125 42.828125 29 38.59375 
Q 25.875 34.375 25.875 26.90625 
L 25.875 0 
L 8.40625 0 
L 8.40625 54.6875 
L 25.875 54.6875 
L 25.875 46.6875 
Q 29.828125 51.46875 34.265625 53.734375 
Q 38.71875 56 44.09375 56 
Q 53.5625 56 58.46875 50.1875 
Q 63.375 44.390625 63.375 33.296875 
z
" id="DejaVuSans-Bold-110"/>
     <path d="M 7.8125 21.296875 
L 7.8125 54.6875 
L 25.390625 54.6875 
L 25.390625 49.21875 
Q 25.390625 44.78125 25.34375 38.0625 
Q 25.296875 31.34375 25.296875 29.109375 
Q 25.296875 22.515625 25.640625 19.609375 
Q 25.984375 16.703125 26.8125 15.375 
Q 27.875 13.671875 29.609375 12.734375 
Q 31.34375 11.8125 33.59375 11.8125 
Q 39.0625 11.8125 42.1875 16.015625 
Q 45.3125 20.21875 45.3125 27.6875 
L 45.3125 54.6875 
L 62.796875 54.6875 
L 62.796875 0 
L 45.3125 0 
L 45.3125 7.90625 
Q 41.359375 3.125 36.9375 0.84375 
Q 32.515625 -1.421875 27.203125 -1.421875 
Q 17.71875 -1.421875 12.765625 4.390625 
Q 7.8125 10.203125 7.8125 21.296875 
z
" id="DejaVuSans-Bold-117"/>
     <path d="M 49.03125 39.796875 
Q 46.734375 40.875 44.453125 41.375 
Q 42.1875 41.890625 39.890625 41.890625 
Q 33.15625 41.890625 29.515625 37.5625 
Q 25.875 33.25 25.875 25.203125 
L 25.875 0 
L 8.40625 0 
L 8.40625 54.6875 
L 25.875 54.6875 
L 25.875 45.703125 
Q 29.25 51.078125 33.609375 53.53125 
Q 37.984375 56 44.09375 56 
Q 44.96875 56 45.984375 55.921875 
Q 47.015625 55.859375 48.96875 55.609375 
z
" id="DejaVuSans-Bold-114"/>
    </defs>
    <g transform="translate(385.354141 16.318125)scale(0.12 -0.12)">
     <use xlink:href="#DejaVuSans-Bold-67"/>
     <use x="73.388672" xlink:href="#DejaVuSans-Bold-97"/>
     <use x="140.869141" xlink:href="#DejaVuSans-Bold-116"/>
     <use x="188.671875" xlink:href="#DejaVuSans-Bold-116"/>
     <use x="236.474609" xlink:href="#DejaVuSans-Bold-108"/>
     <use x="270.751953" xlink:href="#DejaVuSans-Bold-101"/>
     <use x="338.574219" xlink:href="#DejaVuSans-Bold-32"/>
     <use x="373.388672" xlink:href="#DejaVuSans-Bold-109"/>
     <use x="477.587891" xlink:href="#DejaVuSans-Bold-97"/>
     <use x="545.068359" xlink:href="#DejaVuSans-Bold-110"/>
     <use x="616.259766" xlink:href="#DejaVuSans-Bold-117"/>
     <use x="687.451172" xlink:href="#DejaVuSans-Bold-114"/>
     <use x="736.767578" xlink:href="#DejaVuSans-Bold-101"/>
    </g>
   </g>
  </g>
  <g id="axes_3">
   <g id="patch_18">
    <path d="M 226.352843 344.419238 
C 226.352843 332.700119 223.76402 321.12441 218.771915 310.521738 
C 213.77981 299.919067 206.506602 290.548929 197.473559 283.082879 
C 188.440517 275.616829 177.86872 270.237596 166.515846 267.330707 
C 155.162971 264.423819 143.306877 264.060419 131.797284 266.266554 
L 146.777427 344.419238 
L 226.352843 344.419238 
z
" style="fill:#3d5941;"/>
   </g>
   <g id="patch_19">
    <path d="M 131.797284 266.266554 
C 126.211935 267.337142 120.757412 269.003405 115.52727 271.236765 
C 110.297128 273.470124 105.321441 276.257737 100.68555 279.551792 
L 146.777427 344.419238 
L 131.797284 266.266554 
z
" style="fill:#778868;"/>
   </g>
   <g id="patch_20">
    <path d="M 100.68555 279.551792 
C 93.235298 284.845604 86.75245 291.383595 81.521927 298.878416 
C 76.291405 306.373238 72.390976 314.713459 69.992064 323.532526 
L 146.777427 344.419238 
L 100.68555 279.551792 
z
" style="fill:#b5b991;"/>
   </g>
   <g id="patch_21">
    <path d="M 69.992064 323.532526 
C 66.657854 335.790009 66.306659 348.669533 68.967944 361.0905 
C 71.629228 373.511466 77.226423 385.116504 85.289921 394.931943 
C 93.353419 404.747382 103.65122 412.490817 115.319332 417.512569 
C 126.987445 422.534321 139.690159 424.689906 152.361709 423.79847 
L 146.777427 344.419238 
L 69.992064 323.532526 
z
" style="fill:#f6edbd;"/>
   </g>
   <g id="patch_22">
    <path d="M 152.361709 423.79847 
C 158.034715 423.399378 163.648629 422.393282 169.10716 420.79744 
C 174.565692 419.201598 179.837454 417.025186 184.832028 414.305532 
L 146.777427 344.419238 
L 152.361709 423.79847 
z
" style="fill:#edbb8a;"/>
   </g>
   <g id="patch_23">
    <path d="M 184.832028 414.305532 
C 194.849644 408.850723 203.578293 401.305229 210.424676 392.181928 
C 217.271058 383.058627 222.07646 372.569017 224.51425 361.426093 
L 146.777427 344.419238 
L 184.832028 414.305532 
z
" style="fill:#de8a5a;"/>
   </g>
   <g id="patch_24">
    <path d="M 224.51425 361.426093 
C 225.124891 358.634909 225.58476 355.812861 225.891859 352.972213 
C 226.198959 350.131565 226.352843 347.276438 226.352843 344.419238 
L 146.777427 344.419238 
L 224.51425 361.426093 
z
" style="fill:#ca562c;"/>
   </g>
   <g id="patch_25">
    <path clip-path="url(#p8add701151)" d="M 146.777427 400.122029 
C 161.54998 400.122029 175.719476 394.252831 186.165249 383.807059 
C 196.611021 373.361287 202.480218 359.191791 202.480218 344.419238 
C 202.480218 329.646685 196.611021 315.477189 186.165249 305.031417 
C 175.719476 294.585645 161.54998 288.716447 146.777427 288.716447 
C 132.004875 288.716447 117.835379 294.585645 107.389606 305.031417 
C 96.943834 315.477189 91.074637 329.646685 91.074637 344.419238 
C 91.074637 359.191791 96.943834 373.361287 107.389606 383.807059 
C 117.835379 394.252831 132.004875 400.122029 146.777427 400.122029 
z
" style="fill:#ffffff;stroke:#ffffff;stroke-linejoin:miter;"/>
   </g>
   <g id="matplotlib.axis_5"/>
   <g id="matplotlib.axis_6"/>
   <g id="text_31">
    <!-- Utilities -->
    <g transform="translate(202.543173 279.708618)scale(0.1 -0.1)">
     <use xlink:href="#DejaVuSans-85"/>
     <use x="73.193359" xlink:href="#DejaVuSans-116"/>
     <use x="112.402344" xlink:href="#DejaVuSans-105"/>
     <use x="140.185547" xlink:href="#DejaVuSans-108"/>
     <use x="167.96875" xlink:href="#DejaVuSans-105"/>
     <use x="195.751953" xlink:href="#DejaVuSans-116"/>
     <use x="234.960938" xlink:href="#DejaVuSans-105"/>
     <use x="262.744141" xlink:href="#DejaVuSans-101"/>
     <use x="324.267578" xlink:href="#DejaVuSans-115"/>
    </g>
   </g>
   <g id="text_32">
    <!-- 28% -->
    <defs>
     <path d="M 31.78125 34.625 
Q 24.75 34.625 20.71875 30.859375 
Q 16.703125 27.09375 16.703125 20.515625 
Q 16.703125 13.921875 20.71875 10.15625 
Q 24.75 6.390625 31.78125 6.390625 
Q 38.8125 6.390625 42.859375 10.171875 
Q 46.921875 13.96875 46.921875 20.515625 
Q 46.921875 27.09375 42.890625 30.859375 
Q 38.875 34.625 31.78125 34.625 
z
M 21.921875 38.8125 
Q 15.578125 40.375 12.03125 44.71875 
Q 8.5 49.078125 8.5 55.328125 
Q 8.5 64.0625 14.71875 69.140625 
Q 20.953125 74.21875 31.78125 74.21875 
Q 42.671875 74.21875 48.875 69.140625 
Q 55.078125 64.0625 55.078125 55.328125 
Q 55.078125 49.078125 51.53125 44.71875 
Q 48 40.375 41.703125 38.8125 
Q 48.828125 37.15625 52.796875 32.3125 
Q 56.78125 27.484375 56.78125 20.515625 
Q 56.78125 9.90625 50.3125 4.234375 
Q 43.84375 -1.421875 31.78125 -1.421875 
Q 19.734375 -1.421875 13.25 4.234375 
Q 6.78125 9.90625 6.78125 20.515625 
Q 6.78125 27.484375 10.78125 32.3125 
Q 14.796875 37.15625 21.921875 38.8125 
z
M 18.3125 54.390625 
Q 18.3125 48.734375 21.84375 45.5625 
Q 25.390625 42.390625 31.78125 42.390625 
Q 38.140625 42.390625 41.71875 45.5625 
Q 45.3125 48.734375 45.3125 54.390625 
Q 45.3125 60.0625 41.71875 63.234375 
Q 38.140625 66.40625 31.78125 66.40625 
Q 25.390625 66.40625 21.84375 63.234375 
Q 18.3125 60.0625 18.3125 54.390625 
z
" id="DejaVuSans-56"/>
    </defs>
    <g transform="translate(163.547019 313.443616)scale(0.1 -0.1)">
     <use xlink:href="#DejaVuSans-50"/>
     <use x="63.623047" xlink:href="#DejaVuSans-56"/>
     <use x="127.246094" xlink:href="#DejaVuSans-37"/>
    </g>
   </g>
   <g id="text_33">
    <!-- Labor -->
    <g transform="translate(84.12413 266.677892)scale(0.1 -0.1)">
     <use xlink:href="#DejaVuSans-76"/>
     <use x="55.712891" xlink:href="#DejaVuSans-97"/>
     <use x="116.992188" xlink:href="#DejaVuSans-98"/>
     <use x="180.46875" xlink:href="#DejaVuSans-111"/>
     <use x="241.650391" xlink:href="#DejaVuSans-114"/>
    </g>
   </g>
   <g id="text_34">
    <!-- 7% -->
    <g transform="translate(121.65781 306.928253)scale(0.1 -0.1)">
     <use xlink:href="#DejaVuSans-55"/>
     <use x="63.623047" xlink:href="#DejaVuSans-37"/>
    </g>
   </g>
   <g id="text_35">
    <!-- Maintenance -->
    <g transform="translate(10.596377 297.083709)scale(0.1 -0.1)">
     <use xlink:href="#DejaVuSans-77"/>
     <use x="86.279297" xlink:href="#DejaVuSans-97"/>
     <use x="147.558594" xlink:href="#DejaVuSans-105"/>
     <use x="175.341797" xlink:href="#DejaVuSans-110"/>
     <use x="238.720703" xlink:href="#DejaVuSans-116"/>
     <use x="277.929688" xlink:href="#DejaVuSans-101"/>
     <use x="339.453125" xlink:href="#DejaVuSans-110"/>
     <use x="402.832031" xlink:href="#DejaVuSans-97"/>
     <use x="464.111328" xlink:href="#DejaVuSans-110"/>
     <use x="527.490234" xlink:href="#DejaVuSans-99"/>
     <use x="582.470703" xlink:href="#DejaVuSans-101"/>
    </g>
   </g>
   <g id="text_36">
    <!-- 11% -->
    <g transform="translate(99.773621 322.131161)scale(0.1 -0.1)">
     <use xlink:href="#DejaVuSans-49"/>
     <use x="63.623047" xlink:href="#DejaVuSans-49"/>
     <use x="127.246094" xlink:href="#DejaVuSans-37"/>
    </g>
   </g>
   <g id="text_37">
    <!-- Equipment -->
    <g transform="translate(24.858358 402.742588)scale(0.1 -0.1)">
     <use xlink:href="#DejaVuSans-69"/>
     <use x="63.183594" xlink:href="#DejaVuSans-113"/>
     <use x="126.660156" xlink:href="#DejaVuSans-117"/>
     <use x="190.039062" xlink:href="#DejaVuSans-105"/>
     <use x="217.822266" xlink:href="#DejaVuSans-112"/>
     <use x="281.298828" xlink:href="#DejaVuSans-109"/>
     <use x="378.710938" xlink:href="#DejaVuSans-101"/>
     <use x="440.234375" xlink:href="#DejaVuSans-110"/>
     <use x="503.613281" xlink:href="#DejaVuSans-116"/>
    </g>
   </g>
   <g id="text_38">
    <!-- 30% -->
    <g transform="translate(101.846018 374.960601)scale(0.1 -0.1)">
     <use xlink:href="#DejaVuSans-51"/>
     <use x="63.623047" xlink:href="#DejaVuSans-48"/>
     <use x="127.246094" xlink:href="#DejaVuSans-37"/>
    </g>
   </g>
   <g id="text_39">
    <!-- Taxes -->
    <g transform="translate(171.340134 431.194635)scale(0.1 -0.1)">
     <use xlink:href="#DejaVuSans-84"/>
     <use x="60.833984" xlink:href="#DejaVuSans-97"/>
     <use x="122.113281" xlink:href="#DejaVuSans-120"/>
     <use x="181.246094" xlink:href="#DejaVuSans-101"/>
     <use x="242.769531" xlink:href="#DejaVuSans-115"/>
    </g>
   </g>
   <g id="text_40">
    <!-- 7% -->
    <g transform="translate(151.126749 389.186624)scale(0.1 -0.1)">
     <use xlink:href="#DejaVuSans-55"/>
     <use x="63.623047" xlink:href="#DejaVuSans-37"/>
    </g>
   </g>
   <g id="text_41">
    <!-- Other -->
    <g transform="translate(216.7894 399.717572)scale(0.1 -0.1)">
     <use xlink:href="#DejaVuSans-79"/>
     <use x="78.710938" xlink:href="#DejaVuSans-116"/>
     <use x="117.919922" xlink:href="#DejaVuSans-104"/>
     <use x="181.298828" xlink:href="#DejaVuSans-101"/>
     <use x="242.822266" xlink:href="#DejaVuSans-114"/>
    </g>
   </g>
   <g id="text_42">
    <!-- 14% -->
    <defs>
     <path d="M 37.796875 64.3125 
L 12.890625 25.390625 
L 37.796875 25.390625 
z
M 35.203125 72.90625 
L 47.609375 72.90625 
L 47.609375 25.390625 
L 58.015625 25.390625 
L 58.015625 17.1875 
L 47.609375 17.1875 
L 47.609375 0 
L 37.796875 0 
L 37.796875 17.1875 
L 4.890625 17.1875 
L 4.890625 26.703125 
z
" id="DejaVuSans-52"/>
    </defs>
    <g transform="translate(170.670133 373.448092)scale(0.1 -0.1)">
     <use xlink:href="#DejaVuSans-49"/>
     <use x="63.623047" xlink:href="#DejaVuSans-52"/>
     <use x="127.246094" xlink:href="#DejaVuSans-37"/>
    </g>
   </g>
   <g id="text_43">
    <!-- Administration -->
    <g transform="translate(233.803303 356.586886)scale(0.1 -0.1)">
     <use xlink:href="#DejaVuSans-65"/>
     <use x="68.392578" xlink:href="#DejaVuSans-100"/>
     <use x="131.869141" xlink:href="#DejaVuSans-109"/>
     <use x="229.28125" xlink:href="#DejaVuSans-105"/>
     <use x="257.064453" xlink:href="#DejaVuSans-110"/>
     <use x="320.443359" xlink:href="#DejaVuSans-105"/>
     <use x="348.226562" xlink:href="#DejaVuSans-115"/>
     <use x="400.326172" xlink:href="#DejaVuSans-116"/>
     <use x="439.535156" xlink:href="#DejaVuSans-114"/>
     <use x="480.648438" xlink:href="#DejaVuSans-97"/>
     <use x="541.927734" xlink:href="#DejaVuSans-116"/>
     <use x="581.136719" xlink:href="#DejaVuSans-105"/>
     <use x="608.919922" xlink:href="#DejaVuSans-111"/>
     <use x="670.101562" xlink:href="#DejaVuSans-110"/>
    </g>
   </g>
   <g id="text_44">
    <!-- 3% -->
    <g transform="translate(182.358334 351.882749)scale(0.1 -0.1)">
     <use xlink:href="#DejaVuSans-51"/>
     <use x="63.623047" xlink:href="#DejaVuSans-37"/>
    </g>
   </g>
   <g id="text_45">
    <!-- Swine manure -->
    <defs>
     <path d="M 59.90625 70.609375 
L 59.90625 55.171875 
Q 53.90625 57.859375 48.1875 59.21875 
Q 42.484375 60.59375 37.40625 60.59375 
Q 30.671875 60.59375 27.4375 58.734375 
Q 24.21875 56.890625 24.21875 52.984375 
Q 24.21875 50.046875 26.390625 48.40625 
Q 28.5625 46.78125 34.28125 45.609375 
L 42.28125 44 
Q 54.4375 41.546875 59.5625 36.5625 
Q 64.703125 31.59375 64.703125 22.40625 
Q 64.703125 10.359375 57.546875 4.46875 
Q 50.390625 -1.421875 35.6875 -1.421875 
Q 28.765625 -1.421875 21.78125 -0.09375 
Q 14.796875 1.21875 7.8125 3.8125 
L 7.8125 19.671875 
Q 14.796875 15.96875 21.3125 14.078125 
Q 27.828125 12.203125 33.890625 12.203125 
Q 40.046875 12.203125 43.3125 14.25 
Q 46.578125 16.3125 46.578125 20.125 
Q 46.578125 23.53125 44.359375 25.390625 
Q 42.140625 27.25 35.5 28.71875 
L 28.21875 30.328125 
Q 17.28125 32.671875 12.21875 37.796875 
Q 7.171875 42.921875 7.171875 51.609375 
Q 7.171875 62.5 14.203125 68.359375 
Q 21.234375 74.21875 34.421875 74.21875 
Q 40.4375 74.21875 46.78125 73.3125 
Q 53.125 72.40625 59.90625 70.609375 
z
" id="DejaVuSans-Bold-83"/>
     <path d="M 8.40625 54.6875 
L 25.875 54.6875 
L 25.875 0 
L 8.40625 0 
z
M 8.40625 75.984375 
L 25.875 75.984375 
L 25.875 61.71875 
L 8.40625 61.71875 
z
" id="DejaVuSans-Bold-105"/>
    </defs>
    <g transform="translate(98.554302 244.918125)scale(0.12 -0.12)">
     <use xlink:href="#DejaVuSans-Bold-83"/>
     <use x="72.021484" xlink:href="#DejaVuSans-Bold-119"/>
     <use x="164.404297" xlink:href="#DejaVuSans-Bold-105"/>
     <use x="198.681641" xlink:href="#DejaVuSans-Bold-110"/>
     <use x="269.873047" xlink:href="#DejaVuSans-Bold-101"/>
     <use x="337.695312" xlink:href="#DejaVuSans-Bold-32"/>
     <use x="372.509766" xlink:href="#DejaVuSans-Bold-109"/>
     <use x="476.708984" xlink:href="#DejaVuSans-Bold-97"/>
     <use x="544.189453" xlink:href="#DejaVuSans-Bold-110"/>
     <use x="615.380859" xlink:href="#DejaVuSans-Bold-117"/>
     <use x="686.572266" xlink:href="#DejaVuSans-Bold-114"/>
     <use x="735.888672" xlink:href="#DejaVuSans-Bold-101"/>
    </g>
   </g>
  </g>
  <g id="axes_4">
   <g id="patch_26">
    <path d="M 513.205181 344.419238 
C 513.205181 329.424468 508.966879 314.7307 500.981043 302.039382 
C 492.995207 289.348064 481.58245 279.168721 468.064299 272.68006 
C 454.546148 266.191399 439.465324 263.653923 424.568095 265.361456 
C 409.670865 267.06899 395.555317 272.952979 383.855944 282.332095 
L 433.629766 344.419238 
L 513.205181 344.419238 
z
" style="fill:#3d5941;"/>
   </g>
   <g id="patch_27">
    <path d="M 383.855944 282.332095 
C 379.920058 285.487403 376.293111 289.009835 373.024101 292.851806 
C 369.75509 296.693776 366.858804 300.837905 364.37437 305.228208 
L 433.629766 344.419238 
L 383.855944 282.332095 
z
" style="fill:#778868;"/>
   </g>
   <g id="patch_28">
    <path d="M 364.37437 305.228208 
C 360.38295 312.28154 357.492375 319.903421 355.802812 327.829726 
C 354.113249 335.756031 353.644443 343.894133 354.412639 351.962021 
L 433.629766 344.419238 
L 364.37437 305.228208 
z
" style="fill:#b5b991;"/>
   </g>
   <g id="patch_29">
    <path d="M 354.412639 351.962021 
C 355.494248 363.321482 359.006672 374.316525 364.710986 384.199239 
C 370.4153 394.081954 378.179165 402.62306 387.474463 409.24157 
C 396.769761 415.860081 407.38084 420.402446 418.585909 422.559683 
C 429.790978 424.71692 441.330078 424.43898 452.418292 421.744771 
L 433.629766 344.419238 
L 354.412639 351.962021 
z
" style="fill:#f6edbd;"/>
   </g>
   <g id="patch_30">
    <path d="M 452.418292 421.744771 
C 457.320184 420.553711 462.097732 418.899228 466.686393 416.803671 
C 471.275054 414.708115 475.654071 412.180965 479.764286 409.256363 
L 433.629766 344.419238 
L 452.418292 421.744771 
z
" style="fill:#edbb8a;"/>
   </g>
   <g id="patch_31">
    <path d="M 479.764286 409.256363 
C 488.003182 403.39402 495.049678 396.01466 500.525776 387.514141 
C 506.001873 379.013621 509.80787 369.546708 511.739598 359.62124 
L 433.629766 344.419238 
L 479.764286 409.256363 
z
" style="fill:#de8a5a;"/>
   </g>
   <g id="patch_32">
    <path d="M 511.739598 359.62124 
C 512.226714 357.118376 512.59325 354.593545 512.837937 352.055487 
C 513.082625 349.517429 513.205181 346.969076 513.205181 344.41925 
L 433.629766 344.419238 
L 511.739598 359.62124 
z
" style="fill:#ca562c;"/>
   </g>
   <g id="patch_33">
    <path clip-path="url(#pbe42f64053)" d="M 433.629766 400.122029 
C 448.402319 400.122029 462.571815 394.252831 473.017587 383.807059 
C 483.463359 373.361287 489.332557 359.191791 489.332557 344.419238 
C 489.332557 329.646685 483.463359 315.477189 473.017587 305.031417 
C 462.571815 294.585645 448.402319 288.716447 433.629766 288.716447 
C 418.857213 288.716447 404.687717 294.585645 394.241945 305.031417 
C 383.796173 315.477189 377.926975 329.646685 377.926975 344.419238 
C 377.926975 359.191791 383.796173 373.361287 394.241945 383.807059 
C 404.687717 394.252831 418.857213 400.122029 433.629766 400.122029 
z
" style="fill:#ffffff;stroke:#ffffff;stroke-linejoin:miter;"/>
   </g>
   <g id="matplotlib.axis_7"/>
   <g id="matplotlib.axis_8"/>
   <g id="text_46">
    <!-- Utilities -->
    <g transform="translate(471.507753 268.265517)scale(0.1 -0.1)">
     <use xlink:href="#DejaVuSans-85"/>
     <use x="73.193359" xlink:href="#DejaVuSans-116"/>
     <use x="112.402344" xlink:href="#DejaVuSans-105"/>
     <use x="140.185547" xlink:href="#DejaVuSans-108"/>
     <use x="167.96875" xlink:href="#DejaVuSans-105"/>
     <use x="195.751953" xlink:href="#DejaVuSans-116"/>
     <use x="234.960938" xlink:href="#DejaVuSans-105"/>
     <use x="262.744141" xlink:href="#DejaVuSans-101"/>
     <use x="324.267578" xlink:href="#DejaVuSans-115"/>
    </g>
   </g>
   <g id="text_47">
    <!-- 36% -->
    <g transform="translate(441.455478 307.722065)scale(0.1 -0.1)">
     <use xlink:href="#DejaVuSans-51"/>
     <use x="63.623047" xlink:href="#DejaVuSans-54"/>
     <use x="127.246094" xlink:href="#DejaVuSans-37"/>
    </g>
   </g>
   <g id="text_48">
    <!-- Labor -->
    <g transform="translate(338.685409 290.454438)scale(0.1 -0.1)">
     <use xlink:href="#DejaVuSans-76"/>
     <use x="55.712891" xlink:href="#DejaVuSans-97"/>
     <use x="116.992188" xlink:href="#DejaVuSans-98"/>
     <use x="180.46875" xlink:href="#DejaVuSans-111"/>
     <use x="241.650391" xlink:href="#DejaVuSans-114"/>
    </g>
   </g>
   <g id="text_49">
    <!-- 6% -->
    <g transform="translate(392.364619 318.816525)scale(0.1 -0.1)">
     <use xlink:href="#DejaVuSans-54"/>
     <use x="63.623047" xlink:href="#DejaVuSans-37"/>
    </g>
   </g>
   <g id="text_50">
    <!-- Maintenance -->
    <g transform="translate(283.620116 328.93015)scale(0.1 -0.1)">
     <use xlink:href="#DejaVuSans-77"/>
     <use x="86.279297" xlink:href="#DejaVuSans-97"/>
     <use x="147.558594" xlink:href="#DejaVuSans-105"/>
     <use x="175.341797" xlink:href="#DejaVuSans-110"/>
     <use x="238.720703" xlink:href="#DejaVuSans-116"/>
     <use x="277.929688" xlink:href="#DejaVuSans-101"/>
     <use x="339.453125" xlink:href="#DejaVuSans-110"/>
     <use x="402.832031" xlink:href="#DejaVuSans-97"/>
     <use x="464.111328" xlink:href="#DejaVuSans-110"/>
     <use x="527.490234" xlink:href="#DejaVuSans-99"/>
     <use x="582.470703" xlink:href="#DejaVuSans-101"/>
    </g>
   </g>
   <g id="text_51">
    <!-- 10% -->
    <g transform="translate(379.71166 338.054381)scale(0.1 -0.1)">
     <use xlink:href="#DejaVuSans-49"/>
     <use x="63.623047" xlink:href="#DejaVuSans-48"/>
     <use x="127.246094" xlink:href="#DejaVuSans-37"/>
    </g>
   </g>
   <g id="text_52">
    <!-- Equipment -->
    <g transform="translate(328.57612 418.483178)scale(0.1 -0.1)">
     <use xlink:href="#DejaVuSans-69"/>
     <use x="63.183594" xlink:href="#DejaVuSans-113"/>
     <use x="126.660156" xlink:href="#DejaVuSans-117"/>
     <use x="190.039062" xlink:href="#DejaVuSans-105"/>
     <use x="217.822266" xlink:href="#DejaVuSans-112"/>
     <use x="281.298828" xlink:href="#DejaVuSans-109"/>
     <use x="378.710938" xlink:href="#DejaVuSans-101"/>
     <use x="440.234375" xlink:href="#DejaVuSans-110"/>
     <use x="503.613281" xlink:href="#DejaVuSans-116"/>
    </g>
   </g>
   <g id="text_53">
    <!-- 27% -->
    <g transform="translate(397.131068 382.830896)scale(0.1 -0.1)">
     <use xlink:href="#DejaVuSans-50"/>
     <use x="63.623047" xlink:href="#DejaVuSans-55"/>
     <use x="127.246094" xlink:href="#DejaVuSans-37"/>
    </g>
   </g>
   <g id="text_54">
    <!-- Taxes -->
    <g transform="translate(469.992055 426.80149)scale(0.1 -0.1)">
     <use xlink:href="#DejaVuSans-84"/>
     <use x="60.833984" xlink:href="#DejaVuSans-97"/>
     <use x="122.113281" xlink:href="#DejaVuSans-120"/>
     <use x="181.246094" xlink:href="#DejaVuSans-101"/>
     <use x="242.769531" xlink:href="#DejaVuSans-115"/>
    </g>
   </g>
   <g id="text_55">
    <!-- 6% -->
    <g transform="translate(443.878879 386.990051)scale(0.1 -0.1)">
     <use xlink:href="#DejaVuSans-54"/>
     <use x="63.623047" xlink:href="#DejaVuSans-37"/>
    </g>
   </g>
   <g id="text_56">
    <!-- Other -->
    <g transform="translate(507.215377 394.583006)scale(0.1 -0.1)">
     <use xlink:href="#DejaVuSans-79"/>
     <use x="78.710938" xlink:href="#DejaVuSans-116"/>
     <use x="117.919922" xlink:href="#DejaVuSans-104"/>
     <use x="181.298828" xlink:href="#DejaVuSans-101"/>
     <use x="242.822266" xlink:href="#DejaVuSans-114"/>
    </g>
   </g>
   <g id="text_57">
    <!-- 12% -->
    <g transform="translate(459.30929 370.880809)scale(0.1 -0.1)">
     <use xlink:href="#DejaVuSans-49"/>
     <use x="63.623047" xlink:href="#DejaVuSans-50"/>
     <use x="127.246094" xlink:href="#DejaVuSans-37"/>
    </g>
   </g>
   <g id="text_58">
    <!-- Administration -->
    <g transform="translate(520.758755 355.578487)scale(0.1 -0.1)">
     <use xlink:href="#DejaVuSans-65"/>
     <use x="68.392578" xlink:href="#DejaVuSans-100"/>
     <use x="131.869141" xlink:href="#DejaVuSans-109"/>
     <use x="229.28125" xlink:href="#DejaVuSans-105"/>
     <use x="257.064453" xlink:href="#DejaVuSans-110"/>
     <use x="320.443359" xlink:href="#DejaVuSans-105"/>
     <use x="348.226562" xlink:href="#DejaVuSans-115"/>
     <use x="400.326172" xlink:href="#DejaVuSans-116"/>
     <use x="439.535156" xlink:href="#DejaVuSans-114"/>
     <use x="480.648438" xlink:href="#DejaVuSans-97"/>
     <use x="541.927734" xlink:href="#DejaVuSans-116"/>
     <use x="581.136719" xlink:href="#DejaVuSans-105"/>
     <use x="608.919922" xlink:href="#DejaVuSans-111"/>
     <use x="670.101562" xlink:href="#DejaVuSans-110"/>
    </g>
   </g>
   <g id="text_59">
    <!-- 3% -->
    <g transform="translate(469.262229 351.37855)scale(0.1 -0.1)">
     <use xlink:href="#DejaVuSans-51"/>
     <use x="63.623047" xlink:href="#DejaVuSans-37"/>
    </g>
   </g>
   <g id="text_60">
    <!-- Sludge -->
    <defs>
     <path d="M 45.609375 9.28125 
Q 42 4.5 37.640625 2.25 
Q 33.296875 0 27.59375 0 
Q 17.578125 0 11.03125 7.875 
Q 4.5 15.765625 4.5 27.984375 
Q 4.5 40.234375 11.03125 48.0625 
Q 17.578125 55.90625 27.59375 55.90625 
Q 33.296875 55.90625 37.640625 53.65625 
Q 42 51.421875 45.609375 46.578125 
L 45.609375 54.6875 
L 63.1875 54.6875 
L 63.1875 5.515625 
Q 63.1875 -7.671875 54.859375 -14.625 
Q 46.53125 -21.578125 30.71875 -21.578125 
Q 25.59375 -21.578125 20.796875 -20.796875 
Q 16.015625 -20.015625 11.1875 -18.40625 
L 11.1875 -4.78125 
Q 15.765625 -7.421875 20.15625 -8.71875 
Q 24.5625 -10.015625 29 -10.015625 
Q 37.59375 -10.015625 41.59375 -6.25 
Q 45.609375 -2.484375 45.609375 5.515625 
z
M 34.078125 43.3125 
Q 28.65625 43.3125 25.625 39.296875 
Q 22.609375 35.296875 22.609375 27.984375 
Q 22.609375 20.453125 25.53125 16.578125 
Q 28.46875 12.703125 34.078125 12.703125 
Q 39.546875 12.703125 42.578125 16.703125 
Q 45.609375 20.703125 45.609375 27.984375 
Q 45.609375 35.296875 42.578125 39.296875 
Q 39.546875 43.3125 34.078125 43.3125 
z
" id="DejaVuSans-Bold-103"/>
    </defs>
    <g transform="translate(410.321641 244.918125)scale(0.12 -0.12)">
     <use xlink:href="#DejaVuSans-Bold-83"/>
     <use x="72.021484" xlink:href="#DejaVuSans-Bold-108"/>
     <use x="106.298828" xlink:href="#DejaVuSans-Bold-117"/>
     <use x="177.490234" xlink:href="#DejaVuSans-Bold-100"/>
     <use x="249.072266" xlink:href="#DejaVuSans-Bold-103"/>
     <use x="320.654297" xlink:href="#DejaVuSans-Bold-101"/>
    </g>
   </g>
  </g>
 </g>
 <defs>
  <clipPath id="pcebcbd2b7b">
   <rect height="198.938538" width="198.938538" x="47.308158" y="16.349969"/>
  </clipPath>
  <clipPath id="p11172dcf17">
   <rect height="198.938538" width="198.938538" x="334.160497" y="16.349969"/>
  </clipPath>
  <clipPath id="p8add701151">
   <rect height="198.938538" width="198.938538" x="47.308158" y="244.949969"/>
  </clipPath>
  <clipPath id="pbe42f64053">
   <rect height="198.938538" width="198.938538" x="334.160497" y="244.949969"/>
  </clipPath>
 </defs>
</svg>
